<?xml version="1.0" encoding="utf-8" standalone="no"?>
<!DOCTYPE svg PUBLIC "-//W3C//DTD SVG 1.1//EN"
  "http://www.w3.org/Graphics/SVG/1.1/DTD/svg11.dtd">
<svg xmlns:xlink="http://www.w3.org/1999/xlink" width="706.483387pt" height="429.136875pt" viewBox="0 0 706.483387 429.136875" xmlns="http://www.w3.org/2000/svg" version="1.1">
 <metadata>
  <rdf:RDF xmlns:dc="http://purl.org/dc/elements/1.1/" xmlns:cc="http://creativecommons.org/ns#" xmlns:rdf="http://www.w3.org/1999/02/22-rdf-syntax-ns#">
   <cc:Work>
    <dc:type rdf:resource="http://purl.org/dc/dcmitype/StillImage"/>
    <dc:date>2026-01-05T11:09:18.378938</dc:date>
    <dc:format>image/svg+xml</dc:format>
    <dc:creator>
     <cc:Agent>
      <dc:title>Matplotlib v3.10.0, https://matplotlib.org/</dc:title>
     </cc:Agent>
    </dc:creator>
   </cc:Work>
  </rdf:RDF>
 </metadata>
 <defs>
  <style type="text/css">*{stroke-linejoin: round; stroke-linecap: butt}</style>
 </defs>
 <g id="figure_1">
  <g id="patch_1">
   <path d="M 0 429.136875 
L 706.483387 429.136875 
L 706.483387 0 
L 0 0 
z
" style="fill: #ffffff"/>
  </g>
  <g id="axes_1">
   <g id="patch_2">
    <path d="M 55.490938 393.716875 
L 502.300937 393.716875 
L 502.300937 21.935625 
L 55.490938 21.935625 
z
" style="fill: #ffffff"/>
   </g>
   <g id="matplotlib.axis_1">
    <g id="xtick_1">
     <g id="text_1">
      <!-- Achieved QOF Points -->
      <g transform="translate(77.07763 411.090469) scale(0.11 -0.11)">
       <defs>
        <path id="ArialMT-41" d="M -9 0 
L 1750 4581 
L 2403 4581 
L 4278 0 
L 3588 0 
L 3053 1388 
L 1138 1388 
L 634 0 
L -9 0 
z
M 1313 1881 
L 2866 1881 
L 2388 3150 
Q 2169 3728 2063 4100 
Q 1975 3659 1816 3225 
L 1313 1881 
z
" transform="scale(0.015625)"/>
        <path id="ArialMT-63" d="M 2588 1216 
L 3141 1144 
Q 3050 572 2676 248 
Q 2303 -75 1759 -75 
Q 1078 -75 664 370 
Q 250 816 250 1647 
Q 250 2184 428 2587 
Q 606 2991 970 3192 
Q 1334 3394 1763 3394 
Q 2303 3394 2647 3120 
Q 2991 2847 3088 2344 
L 2541 2259 
Q 2463 2594 2264 2762 
Q 2066 2931 1784 2931 
Q 1359 2931 1093 2626 
Q 828 2322 828 1663 
Q 828 994 1084 691 
Q 1341 388 1753 388 
Q 2084 388 2306 591 
Q 2528 794 2588 1216 
z
" transform="scale(0.015625)"/>
        <path id="ArialMT-68" d="M 422 0 
L 422 4581 
L 984 4581 
L 984 2938 
Q 1378 3394 1978 3394 
Q 2347 3394 2619 3248 
Q 2891 3103 3008 2847 
Q 3125 2591 3125 2103 
L 3125 0 
L 2563 0 
L 2563 2103 
Q 2563 2525 2380 2717 
Q 2197 2909 1863 2909 
Q 1613 2909 1392 2779 
Q 1172 2650 1078 2428 
Q 984 2206 984 1816 
L 984 0 
L 422 0 
z
" transform="scale(0.015625)"/>
        <path id="ArialMT-69" d="M 425 3934 
L 425 4581 
L 988 4581 
L 988 3934 
L 425 3934 
z
M 425 0 
L 425 3319 
L 988 3319 
L 988 0 
L 425 0 
z
" transform="scale(0.015625)"/>
        <path id="ArialMT-65" d="M 2694 1069 
L 3275 997 
Q 3138 488 2766 206 
Q 2394 -75 1816 -75 
Q 1088 -75 661 373 
Q 234 822 234 1631 
Q 234 2469 665 2931 
Q 1097 3394 1784 3394 
Q 2450 3394 2872 2941 
Q 3294 2488 3294 1666 
Q 3294 1616 3291 1516 
L 816 1516 
Q 847 969 1125 678 
Q 1403 388 1819 388 
Q 2128 388 2347 550 
Q 2566 713 2694 1069 
z
M 847 1978 
L 2700 1978 
Q 2663 2397 2488 2606 
Q 2219 2931 1791 2931 
Q 1403 2931 1139 2672 
Q 875 2413 847 1978 
z
" transform="scale(0.015625)"/>
        <path id="ArialMT-76" d="M 1344 0 
L 81 3319 
L 675 3319 
L 1388 1331 
Q 1503 1009 1600 663 
Q 1675 925 1809 1294 
L 2547 3319 
L 3125 3319 
L 1869 0 
L 1344 0 
z
" transform="scale(0.015625)"/>
        <path id="ArialMT-64" d="M 2575 0 
L 2575 419 
Q 2259 -75 1647 -75 
Q 1250 -75 917 144 
Q 584 363 401 755 
Q 219 1147 219 1656 
Q 219 2153 384 2558 
Q 550 2963 881 3178 
Q 1213 3394 1622 3394 
Q 1922 3394 2156 3267 
Q 2391 3141 2538 2938 
L 2538 4581 
L 3097 4581 
L 3097 0 
L 2575 0 
z
M 797 1656 
Q 797 1019 1065 703 
Q 1334 388 1700 388 
Q 2069 388 2326 689 
Q 2584 991 2584 1609 
Q 2584 2291 2321 2609 
Q 2059 2928 1675 2928 
Q 1300 2928 1048 2622 
Q 797 2316 797 1656 
z
" transform="scale(0.015625)"/>
        <path id="ArialMT-20" transform="scale(0.015625)"/>
        <path id="ArialMT-51" d="M 3966 491 
Q 4388 200 4744 66 
L 4566 -356 
Q 4072 -178 3581 206 
Q 3072 -78 2456 -78 
Q 1834 -78 1328 222 
Q 822 522 548 1065 
Q 275 1609 275 2291 
Q 275 2969 550 3525 
Q 825 4081 1333 4372 
Q 1841 4663 2469 4663 
Q 3103 4663 3612 4361 
Q 4122 4059 4389 3517 
Q 4656 2975 4656 2294 
Q 4656 1728 4484 1276 
Q 4313 825 3966 491 
z
M 2631 1266 
Q 3156 1119 3497 828 
Q 4031 1316 4031 2294 
Q 4031 2850 3842 3265 
Q 3653 3681 3289 3911 
Q 2925 4141 2472 4141 
Q 1794 4141 1347 3677 
Q 900 3213 900 2291 
Q 900 1397 1342 919 
Q 1784 441 2472 441 
Q 2797 441 3084 563 
Q 2800 747 2484 825 
L 2631 1266 
z
" transform="scale(0.015625)"/>
        <path id="ArialMT-4f" d="M 309 2231 
Q 309 3372 921 4017 
Q 1534 4663 2503 4663 
Q 3138 4663 3647 4359 
Q 4156 4056 4423 3514 
Q 4691 2972 4691 2284 
Q 4691 1588 4409 1038 
Q 4128 488 3612 205 
Q 3097 -78 2500 -78 
Q 1853 -78 1343 234 
Q 834 547 571 1087 
Q 309 1628 309 2231 
z
M 934 2222 
Q 934 1394 1379 917 
Q 1825 441 2497 441 
Q 3181 441 3623 922 
Q 4066 1403 4066 2288 
Q 4066 2847 3877 3264 
Q 3688 3681 3323 3911 
Q 2959 4141 2506 4141 
Q 1863 4141 1398 3698 
Q 934 3256 934 2222 
z
" transform="scale(0.015625)"/>
        <path id="ArialMT-46" d="M 525 0 
L 525 4581 
L 3616 4581 
L 3616 4041 
L 1131 4041 
L 1131 2622 
L 3281 2622 
L 3281 2081 
L 1131 2081 
L 1131 0 
L 525 0 
z
" transform="scale(0.015625)"/>
        <path id="ArialMT-50" d="M 494 0 
L 494 4581 
L 2222 4581 
Q 2678 4581 2919 4538 
Q 3256 4481 3484 4323 
Q 3713 4166 3852 3881 
Q 3991 3597 3991 3256 
Q 3991 2672 3619 2267 
Q 3247 1863 2275 1863 
L 1100 1863 
L 1100 0 
L 494 0 
z
M 1100 2403 
L 2284 2403 
Q 2872 2403 3119 2622 
Q 3366 2841 3366 3238 
Q 3366 3525 3220 3729 
Q 3075 3934 2838 4000 
Q 2684 4041 2272 4041 
L 1100 4041 
L 1100 2403 
z
" transform="scale(0.015625)"/>
        <path id="ArialMT-6f" d="M 213 1659 
Q 213 2581 725 3025 
Q 1153 3394 1769 3394 
Q 2453 3394 2887 2945 
Q 3322 2497 3322 1706 
Q 3322 1066 3130 698 
Q 2938 331 2570 128 
Q 2203 -75 1769 -75 
Q 1072 -75 642 372 
Q 213 819 213 1659 
z
M 791 1659 
Q 791 1022 1069 705 
Q 1347 388 1769 388 
Q 2188 388 2466 706 
Q 2744 1025 2744 1678 
Q 2744 2294 2464 2611 
Q 2184 2928 1769 2928 
Q 1347 2928 1069 2612 
Q 791 2297 791 1659 
z
" transform="scale(0.015625)"/>
        <path id="ArialMT-6e" d="M 422 0 
L 422 3319 
L 928 3319 
L 928 2847 
Q 1294 3394 1984 3394 
Q 2284 3394 2536 3286 
Q 2788 3178 2913 3003 
Q 3038 2828 3088 2588 
Q 3119 2431 3119 2041 
L 3119 0 
L 2556 0 
L 2556 2019 
Q 2556 2363 2490 2533 
Q 2425 2703 2258 2804 
Q 2091 2906 1866 2906 
Q 1506 2906 1245 2678 
Q 984 2450 984 1813 
L 984 0 
L 422 0 
z
" transform="scale(0.015625)"/>
        <path id="ArialMT-74" d="M 1650 503 
L 1731 6 
Q 1494 -44 1306 -44 
Q 1000 -44 831 53 
Q 663 150 594 308 
Q 525 466 525 972 
L 525 2881 
L 113 2881 
L 113 3319 
L 525 3319 
L 525 4141 
L 1084 4478 
L 1084 3319 
L 1650 3319 
L 1650 2881 
L 1084 2881 
L 1084 941 
Q 1084 700 1114 631 
Q 1144 563 1211 522 
Q 1278 481 1403 481 
Q 1497 481 1650 503 
z
" transform="scale(0.015625)"/>
        <path id="ArialMT-73" d="M 197 991 
L 753 1078 
Q 800 744 1014 566 
Q 1228 388 1613 388 
Q 2000 388 2187 545 
Q 2375 703 2375 916 
Q 2375 1106 2209 1216 
Q 2094 1291 1634 1406 
Q 1016 1563 777 1677 
Q 538 1791 414 1992 
Q 291 2194 291 2438 
Q 291 2659 392 2848 
Q 494 3038 669 3163 
Q 800 3259 1026 3326 
Q 1253 3394 1513 3394 
Q 1903 3394 2198 3281 
Q 2494 3169 2634 2976 
Q 2775 2784 2828 2463 
L 2278 2388 
Q 2241 2644 2061 2787 
Q 1881 2931 1553 2931 
Q 1166 2931 1000 2803 
Q 834 2675 834 2503 
Q 834 2394 903 2306 
Q 972 2216 1119 2156 
Q 1203 2125 1616 2013 
Q 2213 1853 2448 1751 
Q 2684 1650 2818 1456 
Q 2953 1263 2953 975 
Q 2953 694 2789 445 
Q 2625 197 2315 61 
Q 2006 -75 1616 -75 
Q 969 -75 630 194 
Q 291 463 197 991 
z
" transform="scale(0.015625)"/>
       </defs>
       <use xlink:href="#ArialMT-41"/>
       <use xlink:href="#ArialMT-63" transform="translate(66.699219 0)"/>
       <use xlink:href="#ArialMT-68" transform="translate(116.699219 0)"/>
       <use xlink:href="#ArialMT-69" transform="translate(172.314453 0)"/>
       <use xlink:href="#ArialMT-65" transform="translate(194.53125 0)"/>
       <use xlink:href="#ArialMT-76" transform="translate(250.146484 0)"/>
       <use xlink:href="#ArialMT-65" transform="translate(300.146484 0)"/>
       <use xlink:href="#ArialMT-64" transform="translate(355.761719 0)"/>
       <use xlink:href="#ArialMT-20" transform="translate(411.376953 0)"/>
       <use xlink:href="#ArialMT-51" transform="translate(439.160156 0)"/>
       <use xlink:href="#ArialMT-4f" transform="translate(516.943359 0)"/>
       <use xlink:href="#ArialMT-46" transform="translate(594.726562 0)"/>
       <use xlink:href="#ArialMT-20" transform="translate(655.810547 0)"/>
       <use xlink:href="#ArialMT-50" transform="translate(683.59375 0)"/>
       <use xlink:href="#ArialMT-6f" transform="translate(750.292969 0)"/>
       <use xlink:href="#ArialMT-69" transform="translate(805.908203 0)"/>
       <use xlink:href="#ArialMT-6e" transform="translate(828.125 0)"/>
       <use xlink:href="#ArialMT-74" transform="translate(883.740234 0)"/>
       <use xlink:href="#ArialMT-73" transform="translate(911.523438 0)"/>
      </g>
     </g>
    </g>
    <g id="xtick_2">
     <g id="text_2">
      <!-- QOF per Register -->
      <g transform="translate(235.4975 411.231406) scale(0.11 -0.11)">
       <defs>
        <path id="ArialMT-70" d="M 422 -1272 
L 422 3319 
L 934 3319 
L 934 2888 
Q 1116 3141 1344 3267 
Q 1572 3394 1897 3394 
Q 2322 3394 2647 3175 
Q 2972 2956 3137 2557 
Q 3303 2159 3303 1684 
Q 3303 1175 3120 767 
Q 2938 359 2589 142 
Q 2241 -75 1856 -75 
Q 1575 -75 1351 44 
Q 1128 163 984 344 
L 984 -1272 
L 422 -1272 
z
M 931 1641 
Q 931 1000 1190 694 
Q 1450 388 1819 388 
Q 2194 388 2461 705 
Q 2728 1022 2728 1688 
Q 2728 2322 2467 2637 
Q 2206 2953 1844 2953 
Q 1484 2953 1207 2617 
Q 931 2281 931 1641 
z
" transform="scale(0.015625)"/>
        <path id="ArialMT-72" d="M 416 0 
L 416 3319 
L 922 3319 
L 922 2816 
Q 1116 3169 1280 3281 
Q 1444 3394 1641 3394 
Q 1925 3394 2219 3213 
L 2025 2691 
Q 1819 2813 1613 2813 
Q 1428 2813 1281 2702 
Q 1134 2591 1072 2394 
Q 978 2094 978 1738 
L 978 0 
L 416 0 
z
" transform="scale(0.015625)"/>
        <path id="ArialMT-52" d="M 503 0 
L 503 4581 
L 2534 4581 
Q 3147 4581 3465 4457 
Q 3784 4334 3975 4021 
Q 4166 3709 4166 3331 
Q 4166 2844 3850 2509 
Q 3534 2175 2875 2084 
Q 3116 1969 3241 1856 
Q 3506 1613 3744 1247 
L 4541 0 
L 3778 0 
L 3172 953 
Q 2906 1366 2734 1584 
Q 2563 1803 2427 1890 
Q 2291 1978 2150 2013 
Q 2047 2034 1813 2034 
L 1109 2034 
L 1109 0 
L 503 0 
z
M 1109 2559 
L 2413 2559 
Q 2828 2559 3062 2645 
Q 3297 2731 3419 2920 
Q 3541 3109 3541 3331 
Q 3541 3656 3305 3865 
Q 3069 4075 2559 4075 
L 1109 4075 
L 1109 2559 
z
" transform="scale(0.015625)"/>
        <path id="ArialMT-67" d="M 319 -275 
L 866 -356 
Q 900 -609 1056 -725 
Q 1266 -881 1628 -881 
Q 2019 -881 2231 -725 
Q 2444 -569 2519 -288 
Q 2563 -116 2559 434 
Q 2191 0 1641 0 
Q 956 0 581 494 
Q 206 988 206 1678 
Q 206 2153 378 2554 
Q 550 2956 876 3175 
Q 1203 3394 1644 3394 
Q 2231 3394 2613 2919 
L 2613 3319 
L 3131 3319 
L 3131 450 
Q 3131 -325 2973 -648 
Q 2816 -972 2473 -1159 
Q 2131 -1347 1631 -1347 
Q 1038 -1347 672 -1080 
Q 306 -813 319 -275 
z
M 784 1719 
Q 784 1066 1043 766 
Q 1303 466 1694 466 
Q 2081 466 2343 764 
Q 2606 1063 2606 1700 
Q 2606 2309 2336 2618 
Q 2066 2928 1684 2928 
Q 1309 2928 1046 2623 
Q 784 2319 784 1719 
z
" transform="scale(0.015625)"/>
       </defs>
       <use xlink:href="#ArialMT-51"/>
       <use xlink:href="#ArialMT-4f" transform="translate(77.783203 0)"/>
       <use xlink:href="#ArialMT-46" transform="translate(155.566406 0)"/>
       <use xlink:href="#ArialMT-20" transform="translate(216.650391 0)"/>
       <use xlink:href="#ArialMT-70" transform="translate(244.433594 0)"/>
       <use xlink:href="#ArialMT-65" transform="translate(300.048828 0)"/>
       <use xlink:href="#ArialMT-72" transform="translate(355.664062 0)"/>
       <use xlink:href="#ArialMT-20" transform="translate(388.964844 0)"/>
       <use xlink:href="#ArialMT-52" transform="translate(416.748047 0)"/>
       <use xlink:href="#ArialMT-65" transform="translate(488.964844 0)"/>
       <use xlink:href="#ArialMT-67" transform="translate(544.580078 0)"/>
       <use xlink:href="#ArialMT-69" transform="translate(600.195312 0)"/>
       <use xlink:href="#ArialMT-73" transform="translate(622.412109 0)"/>
       <use xlink:href="#ArialMT-74" transform="translate(672.412109 0)"/>
       <use xlink:href="#ArialMT-65" transform="translate(700.195312 0)"/>
       <use xlink:href="#ArialMT-72" transform="translate(755.810547 0)"/>
      </g>
     </g>
    </g>
    <g id="xtick_3">
     <g id="text_3">
      <!-- QOF per Weighted -->
      <g transform="translate(381.77526 411.231406) scale(0.11 -0.11)">
       <defs>
        <path id="ArialMT-57" d="M 1294 0 
L 78 4581 
L 700 4581 
L 1397 1578 
Q 1509 1106 1591 641 
Q 1766 1375 1797 1488 
L 2669 4581 
L 3400 4581 
L 4056 2263 
Q 4303 1400 4413 641 
Q 4500 1075 4641 1638 
L 5359 4581 
L 5969 4581 
L 4713 0 
L 4128 0 
L 3163 3491 
Q 3041 3928 3019 4028 
Q 2947 3713 2884 3491 
L 1913 0 
L 1294 0 
z
" transform="scale(0.015625)"/>
       </defs>
       <use xlink:href="#ArialMT-51"/>
       <use xlink:href="#ArialMT-4f" transform="translate(77.783203 0)"/>
       <use xlink:href="#ArialMT-46" transform="translate(155.566406 0)"/>
       <use xlink:href="#ArialMT-20" transform="translate(216.650391 0)"/>
       <use xlink:href="#ArialMT-70" transform="translate(244.433594 0)"/>
       <use xlink:href="#ArialMT-65" transform="translate(300.048828 0)"/>
       <use xlink:href="#ArialMT-72" transform="translate(355.664062 0)"/>
       <use xlink:href="#ArialMT-20" transform="translate(388.964844 0)"/>
       <use xlink:href="#ArialMT-57" transform="translate(416.748047 0)"/>
       <use xlink:href="#ArialMT-65" transform="translate(509.382812 0)"/>
       <use xlink:href="#ArialMT-69" transform="translate(564.998047 0)"/>
       <use xlink:href="#ArialMT-67" transform="translate(587.214844 0)"/>
       <use xlink:href="#ArialMT-68" transform="translate(642.830078 0)"/>
       <use xlink:href="#ArialMT-74" transform="translate(698.445312 0)"/>
       <use xlink:href="#ArialMT-65" transform="translate(726.228516 0)"/>
       <use xlink:href="#ArialMT-64" transform="translate(781.84375 0)"/>
      </g>
     </g>
    </g>
   </g>
   <g id="matplotlib.axis_2">
    <g id="ytick_1">
     <g id="line2d_1">
      <path d="M 55.490938 393.716875 
L 502.300937 393.716875 
" clip-path="url(#p63a1847fff)" style="fill: none; stroke-dasharray: 1,1.65; stroke-dashoffset: 0; stroke: #333333"/>
     </g>
     <g id="text_4">
      <!-- 0 -->
      <g transform="translate(39.873906 397.653672) scale(0.11 -0.11)">
       <defs>
        <path id="ArialMT-30" d="M 266 2259 
Q 266 3072 433 3567 
Q 600 4063 929 4331 
Q 1259 4600 1759 4600 
Q 2128 4600 2406 4451 
Q 2684 4303 2865 4023 
Q 3047 3744 3150 3342 
Q 3253 2941 3253 2259 
Q 3253 1453 3087 958 
Q 2922 463 2592 192 
Q 2263 -78 1759 -78 
Q 1097 -78 719 397 
Q 266 969 266 2259 
z
M 844 2259 
Q 844 1131 1108 757 
Q 1372 384 1759 384 
Q 2147 384 2411 759 
Q 2675 1134 2675 2259 
Q 2675 3391 2411 3762 
Q 2147 4134 1753 4134 
Q 1366 4134 1134 3806 
Q 844 3388 844 2259 
z
" transform="scale(0.015625)"/>
       </defs>
       <use xlink:href="#ArialMT-30"/>
      </g>
     </g>
    </g>
    <g id="ytick_2">
     <g id="line2d_2">
      <path d="M 55.490938 345.875899 
L 502.300937 345.875899 
" clip-path="url(#p63a1847fff)" style="fill: none; stroke-dasharray: 1,1.65; stroke-dashoffset: 0; stroke: #333333"/>
     </g>
     <g id="text_5">
      <!-- 200 -->
      <g transform="translate(27.639844 349.812696) scale(0.11 -0.11)">
       <defs>
        <path id="ArialMT-32" d="M 3222 541 
L 3222 0 
L 194 0 
Q 188 203 259 391 
Q 375 700 629 1000 
Q 884 1300 1366 1694 
Q 2113 2306 2375 2664 
Q 2638 3022 2638 3341 
Q 2638 3675 2398 3904 
Q 2159 4134 1775 4134 
Q 1369 4134 1125 3890 
Q 881 3647 878 3216 
L 300 3275 
Q 359 3922 746 4261 
Q 1134 4600 1788 4600 
Q 2447 4600 2831 4234 
Q 3216 3869 3216 3328 
Q 3216 3053 3103 2787 
Q 2991 2522 2730 2228 
Q 2469 1934 1863 1422 
Q 1356 997 1212 845 
Q 1069 694 975 541 
L 3222 541 
z
" transform="scale(0.015625)"/>
       </defs>
       <use xlink:href="#ArialMT-32"/>
       <use xlink:href="#ArialMT-30" transform="translate(55.615234 0)"/>
       <use xlink:href="#ArialMT-30" transform="translate(111.230469 0)"/>
      </g>
     </g>
    </g>
    <g id="ytick_3">
     <g id="line2d_3">
      <path d="M 55.490938 298.034923 
L 502.300937 298.034923 
" clip-path="url(#p63a1847fff)" style="fill: none; stroke-dasharray: 1,1.65; stroke-dashoffset: 0; stroke: #333333"/>
     </g>
     <g id="text_6">
      <!-- 400 -->
      <g transform="translate(27.639844 301.97172) scale(0.11 -0.11)">
       <defs>
        <path id="ArialMT-34" d="M 2069 0 
L 2069 1097 
L 81 1097 
L 81 1613 
L 2172 4581 
L 2631 4581 
L 2631 1613 
L 3250 1613 
L 3250 1097 
L 2631 1097 
L 2631 0 
L 2069 0 
z
M 2069 1613 
L 2069 3678 
L 634 1613 
L 2069 1613 
z
" transform="scale(0.015625)"/>
       </defs>
       <use xlink:href="#ArialMT-34"/>
       <use xlink:href="#ArialMT-30" transform="translate(55.615234 0)"/>
       <use xlink:href="#ArialMT-30" transform="translate(111.230469 0)"/>
      </g>
     </g>
    </g>
    <g id="ytick_4">
     <g id="line2d_4">
      <path d="M 55.490938 250.193947 
L 502.300937 250.193947 
" clip-path="url(#p63a1847fff)" style="fill: none; stroke-dasharray: 1,1.65; stroke-dashoffset: 0; stroke: #333333"/>
     </g>
     <g id="text_7">
      <!-- 600 -->
      <g transform="translate(27.639844 254.130744) scale(0.11 -0.11)">
       <defs>
        <path id="ArialMT-36" d="M 3184 3459 
L 2625 3416 
Q 2550 3747 2413 3897 
Q 2184 4138 1850 4138 
Q 1581 4138 1378 3988 
Q 1113 3794 959 3422 
Q 806 3050 800 2363 
Q 1003 2672 1297 2822 
Q 1591 2972 1913 2972 
Q 2475 2972 2870 2558 
Q 3266 2144 3266 1488 
Q 3266 1056 3080 686 
Q 2894 316 2569 119 
Q 2244 -78 1831 -78 
Q 1128 -78 684 439 
Q 241 956 241 2144 
Q 241 3472 731 4075 
Q 1159 4600 1884 4600 
Q 2425 4600 2770 4297 
Q 3116 3994 3184 3459 
z
M 888 1484 
Q 888 1194 1011 928 
Q 1134 663 1356 523 
Q 1578 384 1822 384 
Q 2178 384 2434 671 
Q 2691 959 2691 1453 
Q 2691 1928 2437 2201 
Q 2184 2475 1800 2475 
Q 1419 2475 1153 2201 
Q 888 1928 888 1484 
z
" transform="scale(0.015625)"/>
       </defs>
       <use xlink:href="#ArialMT-36"/>
       <use xlink:href="#ArialMT-30" transform="translate(55.615234 0)"/>
       <use xlink:href="#ArialMT-30" transform="translate(111.230469 0)"/>
      </g>
     </g>
    </g>
    <g id="ytick_5">
     <g id="line2d_5">
      <path d="M 55.490938 202.352971 
L 502.300937 202.352971 
" clip-path="url(#p63a1847fff)" style="fill: none; stroke-dasharray: 1,1.65; stroke-dashoffset: 0; stroke: #333333"/>
     </g>
     <g id="text_8">
      <!-- 800 -->
      <g transform="translate(27.639844 206.289768) scale(0.11 -0.11)">
       <defs>
        <path id="ArialMT-38" d="M 1131 2484 
Q 781 2613 612 2850 
Q 444 3088 444 3419 
Q 444 3919 803 4259 
Q 1163 4600 1759 4600 
Q 2359 4600 2725 4251 
Q 3091 3903 3091 3403 
Q 3091 3084 2923 2848 
Q 2756 2613 2416 2484 
Q 2838 2347 3058 2040 
Q 3278 1734 3278 1309 
Q 3278 722 2862 322 
Q 2447 -78 1769 -78 
Q 1091 -78 675 323 
Q 259 725 259 1325 
Q 259 1772 486 2073 
Q 713 2375 1131 2484 
z
M 1019 3438 
Q 1019 3113 1228 2906 
Q 1438 2700 1772 2700 
Q 2097 2700 2305 2904 
Q 2513 3109 2513 3406 
Q 2513 3716 2298 3927 
Q 2084 4138 1766 4138 
Q 1444 4138 1231 3931 
Q 1019 3725 1019 3438 
z
M 838 1322 
Q 838 1081 952 856 
Q 1066 631 1291 507 
Q 1516 384 1775 384 
Q 2178 384 2440 643 
Q 2703 903 2703 1303 
Q 2703 1709 2433 1975 
Q 2163 2241 1756 2241 
Q 1359 2241 1098 1978 
Q 838 1716 838 1322 
z
" transform="scale(0.015625)"/>
       </defs>
       <use xlink:href="#ArialMT-38"/>
       <use xlink:href="#ArialMT-30" transform="translate(55.615234 0)"/>
       <use xlink:href="#ArialMT-30" transform="translate(111.230469 0)"/>
      </g>
     </g>
    </g>
    <g id="ytick_6">
     <g id="line2d_6">
      <path d="M 55.490938 154.511995 
L 502.300937 154.511995 
" clip-path="url(#p63a1847fff)" style="fill: none; stroke-dasharray: 1,1.65; stroke-dashoffset: 0; stroke: #333333"/>
     </g>
     <g id="text_9">
      <!-- 1000 -->
      <g transform="translate(21.522813 158.448792) scale(0.11 -0.11)">
       <defs>
        <path id="ArialMT-31" d="M 2384 0 
L 1822 0 
L 1822 3584 
Q 1619 3391 1289 3197 
Q 959 3003 697 2906 
L 697 3450 
Q 1169 3672 1522 3987 
Q 1875 4303 2022 4600 
L 2384 4600 
L 2384 0 
z
" transform="scale(0.015625)"/>
       </defs>
       <use xlink:href="#ArialMT-31"/>
       <use xlink:href="#ArialMT-30" transform="translate(55.615234 0)"/>
       <use xlink:href="#ArialMT-30" transform="translate(111.230469 0)"/>
       <use xlink:href="#ArialMT-30" transform="translate(166.845703 0)"/>
      </g>
     </g>
    </g>
    <g id="ytick_7">
     <g id="line2d_7">
      <path d="M 55.490938 106.671019 
L 502.300937 106.671019 
" clip-path="url(#p63a1847fff)" style="fill: none; stroke-dasharray: 1,1.65; stroke-dashoffset: 0; stroke: #333333"/>
     </g>
     <g id="text_10">
      <!-- 1200 -->
      <g transform="translate(21.522813 110.607816) scale(0.11 -0.11)">
       <use xlink:href="#ArialMT-31"/>
       <use xlink:href="#ArialMT-32" transform="translate(55.615234 0)"/>
       <use xlink:href="#ArialMT-30" transform="translate(111.230469 0)"/>
       <use xlink:href="#ArialMT-30" transform="translate(166.845703 0)"/>
      </g>
     </g>
    </g>
    <g id="ytick_8">
     <g id="line2d_8">
      <path d="M 55.490938 58.830043 
L 502.300937 58.830043 
" clip-path="url(#p63a1847fff)" style="fill: none; stroke-dasharray: 1,1.65; stroke-dashoffset: 0; stroke: #333333"/>
     </g>
     <g id="text_11">
      <!-- 1400 -->
      <g transform="translate(21.522813 62.76684) scale(0.11 -0.11)">
       <use xlink:href="#ArialMT-31"/>
       <use xlink:href="#ArialMT-34" transform="translate(55.615234 0)"/>
       <use xlink:href="#ArialMT-30" transform="translate(111.230469 0)"/>
       <use xlink:href="#ArialMT-30" transform="translate(166.845703 0)"/>
      </g>
     </g>
    </g>
    <g id="text_12">
     <!-- Mean value by IMD Quintile -->
     <g transform="translate(15.207656 279.028047) rotate(-90) scale(0.11 -0.11)">
      <defs>
       <path id="Arial-BoldMT-4d" d="M 453 0 
L 453 4581 
L 1838 4581 
L 2669 1456 
L 3491 4581 
L 4878 4581 
L 4878 0 
L 4019 0 
L 4019 3606 
L 3109 0 
L 2219 0 
L 1313 3606 
L 1313 0 
L 453 0 
z
" transform="scale(0.015625)"/>
       <path id="Arial-BoldMT-65" d="M 2381 1056 
L 3256 909 
Q 3088 428 2723 176 
Q 2359 -75 1813 -75 
Q 947 -75 531 491 
Q 203 944 203 1634 
Q 203 2459 634 2926 
Q 1066 3394 1725 3394 
Q 2466 3394 2894 2905 
Q 3322 2416 3303 1406 
L 1103 1406 
Q 1113 1016 1316 798 
Q 1519 581 1822 581 
Q 2028 581 2168 693 
Q 2309 806 2381 1056 
z
M 2431 1944 
Q 2422 2325 2234 2523 
Q 2047 2722 1778 2722 
Q 1491 2722 1303 2513 
Q 1116 2303 1119 1944 
L 2431 1944 
z
" transform="scale(0.015625)"/>
       <path id="Arial-BoldMT-61" d="M 1116 2306 
L 319 2450 
Q 453 2931 781 3162 
Q 1109 3394 1756 3394 
Q 2344 3394 2631 3255 
Q 2919 3116 3036 2902 
Q 3153 2688 3153 2116 
L 3144 1091 
Q 3144 653 3186 445 
Q 3228 238 3344 0 
L 2475 0 
Q 2441 88 2391 259 
Q 2369 338 2359 363 
Q 2134 144 1878 34 
Q 1622 -75 1331 -75 
Q 819 -75 523 203 
Q 228 481 228 906 
Q 228 1188 362 1408 
Q 497 1628 739 1745 
Q 981 1863 1438 1950 
Q 2053 2066 2291 2166 
L 2291 2253 
Q 2291 2506 2166 2614 
Q 2041 2722 1694 2722 
Q 1459 2722 1328 2630 
Q 1197 2538 1116 2306 
z
M 2291 1594 
Q 2122 1538 1756 1459 
Q 1391 1381 1278 1306 
Q 1106 1184 1106 997 
Q 1106 813 1243 678 
Q 1381 544 1594 544 
Q 1831 544 2047 700 
Q 2206 819 2256 991 
Q 2291 1103 2291 1419 
L 2291 1594 
z
" transform="scale(0.015625)"/>
       <path id="Arial-BoldMT-6e" d="M 3478 0 
L 2600 0 
L 2600 1694 
Q 2600 2231 2544 2389 
Q 2488 2547 2361 2634 
Q 2234 2722 2056 2722 
Q 1828 2722 1647 2597 
Q 1466 2472 1398 2265 
Q 1331 2059 1331 1503 
L 1331 0 
L 453 0 
L 453 3319 
L 1269 3319 
L 1269 2831 
Q 1703 3394 2363 3394 
Q 2653 3394 2893 3289 
Q 3134 3184 3257 3021 
Q 3381 2859 3429 2653 
Q 3478 2447 3478 2063 
L 3478 0 
z
" transform="scale(0.015625)"/>
       <path id="Arial-BoldMT-20" transform="scale(0.015625)"/>
       <path id="Arial-BoldMT-76" d="M 1372 0 
L 34 3319 
L 956 3319 
L 1581 1625 
L 1763 1059 
Q 1834 1275 1853 1344 
Q 1897 1484 1947 1625 
L 2578 3319 
L 3481 3319 
L 2163 0 
L 1372 0 
z
" transform="scale(0.015625)"/>
       <path id="Arial-BoldMT-6c" d="M 459 0 
L 459 4581 
L 1338 4581 
L 1338 0 
L 459 0 
z
" transform="scale(0.015625)"/>
       <path id="Arial-BoldMT-75" d="M 2644 0 
L 2644 497 
Q 2463 231 2167 78 
Q 1872 -75 1544 -75 
Q 1209 -75 943 72 
Q 678 219 559 484 
Q 441 750 441 1219 
L 441 3319 
L 1319 3319 
L 1319 1794 
Q 1319 1094 1367 936 
Q 1416 778 1544 686 
Q 1672 594 1869 594 
Q 2094 594 2272 717 
Q 2450 841 2515 1023 
Q 2581 1206 2581 1919 
L 2581 3319 
L 3459 3319 
L 3459 0 
L 2644 0 
z
" transform="scale(0.015625)"/>
       <path id="Arial-BoldMT-62" d="M 422 0 
L 422 4581 
L 1300 4581 
L 1300 2931 
Q 1706 3394 2263 3394 
Q 2869 3394 3266 2955 
Q 3663 2516 3663 1694 
Q 3663 844 3258 384 
Q 2853 -75 2275 -75 
Q 1991 -75 1714 67 
Q 1438 209 1238 488 
L 1238 0 
L 422 0 
z
M 1294 1731 
Q 1294 1216 1456 969 
Q 1684 619 2063 619 
Q 2353 619 2558 867 
Q 2763 1116 2763 1650 
Q 2763 2219 2556 2470 
Q 2350 2722 2028 2722 
Q 1713 2722 1503 2476 
Q 1294 2231 1294 1731 
z
" transform="scale(0.015625)"/>
       <path id="Arial-BoldMT-79" d="M 44 3319 
L 978 3319 
L 1772 963 
L 2547 3319 
L 3456 3319 
L 2284 125 
L 2075 -453 
Q 1959 -744 1854 -897 
Q 1750 -1050 1614 -1145 
Q 1478 -1241 1279 -1294 
Q 1081 -1347 831 -1347 
Q 578 -1347 334 -1294 
L 256 -606 
Q 463 -647 628 -647 
Q 934 -647 1081 -467 
Q 1228 -288 1306 -9 
L 44 3319 
z
" transform="scale(0.015625)"/>
       <path id="Arial-BoldMT-49" d="M 438 0 
L 438 4581 
L 1363 4581 
L 1363 0 
L 438 0 
z
" transform="scale(0.015625)"/>
       <path id="Arial-BoldMT-44" d="M 463 4581 
L 2153 4581 
Q 2725 4581 3025 4494 
Q 3428 4375 3715 4072 
Q 4003 3769 4153 3330 
Q 4303 2891 4303 2247 
Q 4303 1681 4163 1272 
Q 3991 772 3672 463 
Q 3431 228 3022 97 
Q 2716 0 2203 0 
L 463 0 
L 463 4581 
z
M 1388 3806 
L 1388 772 
L 2078 772 
Q 2466 772 2638 816 
Q 2863 872 3011 1006 
Q 3159 1141 3253 1448 
Q 3347 1756 3347 2288 
Q 3347 2819 3253 3103 
Q 3159 3388 2990 3547 
Q 2822 3706 2563 3763 
Q 2369 3806 1803 3806 
L 1388 3806 
z
" transform="scale(0.015625)"/>
       <path id="Arial-BoldMT-51" d="M 4153 581 
Q 4494 338 4894 194 
L 4553 -459 
Q 4344 -397 4144 -288 
Q 4100 -266 3528 119 
Q 3078 -78 2531 -78 
Q 1475 -78 876 544 
Q 278 1166 278 2291 
Q 278 3413 878 4036 
Q 1478 4659 2506 4659 
Q 3525 4659 4122 4036 
Q 4719 3413 4719 2291 
Q 4719 1697 4553 1247 
Q 4428 903 4153 581 
z
M 3409 1103 
Q 3588 1313 3677 1609 
Q 3766 1906 3766 2291 
Q 3766 3084 3416 3476 
Q 3066 3869 2500 3869 
Q 1934 3869 1582 3475 
Q 1231 3081 1231 2291 
Q 1231 1488 1582 1089 
Q 1934 691 2472 691 
Q 2672 691 2850 756 
Q 2569 941 2278 1044 
L 2538 1572 
Q 2994 1416 3409 1103 
z
" transform="scale(0.015625)"/>
       <path id="Arial-BoldMT-69" d="M 459 3769 
L 459 4581 
L 1338 4581 
L 1338 3769 
L 459 3769 
z
M 459 0 
L 459 3319 
L 1338 3319 
L 1338 0 
L 459 0 
z
" transform="scale(0.015625)"/>
       <path id="Arial-BoldMT-74" d="M 1981 3319 
L 1981 2619 
L 1381 2619 
L 1381 1281 
Q 1381 875 1398 808 
Q 1416 741 1477 697 
Q 1538 653 1625 653 
Q 1747 653 1978 738 
L 2053 56 
Q 1747 -75 1359 -75 
Q 1122 -75 931 4 
Q 741 84 652 211 
Q 563 338 528 553 
Q 500 706 500 1172 
L 500 2619 
L 97 2619 
L 97 3319 
L 500 3319 
L 500 3978 
L 1381 4491 
L 1381 3319 
L 1981 3319 
z
" transform="scale(0.015625)"/>
      </defs>
      <use xlink:href="#Arial-BoldMT-4d"/>
      <use xlink:href="#Arial-BoldMT-65" transform="translate(83.300781 0)"/>
      <use xlink:href="#Arial-BoldMT-61" transform="translate(138.916016 0)"/>
      <use xlink:href="#Arial-BoldMT-6e" transform="translate(194.53125 0)"/>
      <use xlink:href="#Arial-BoldMT-20" transform="translate(255.615234 0)"/>
      <use xlink:href="#Arial-BoldMT-76" transform="translate(283.398438 0)"/>
      <use xlink:href="#Arial-BoldMT-61" transform="translate(339.013672 0)"/>
      <use xlink:href="#Arial-BoldMT-6c" transform="translate(394.628906 0)"/>
      <use xlink:href="#Arial-BoldMT-75" transform="translate(422.412109 0)"/>
      <use xlink:href="#Arial-BoldMT-65" transform="translate(483.496094 0)"/>
      <use xlink:href="#Arial-BoldMT-20" transform="translate(539.111328 0)"/>
      <use xlink:href="#Arial-BoldMT-62" transform="translate(566.894531 0)"/>
      <use xlink:href="#Arial-BoldMT-79" transform="translate(627.978516 0)"/>
      <use xlink:href="#Arial-BoldMT-20" transform="translate(683.59375 0)"/>
      <use xlink:href="#Arial-BoldMT-49" transform="translate(711.376953 0)"/>
      <use xlink:href="#Arial-BoldMT-4d" transform="translate(739.160156 0)"/>
      <use xlink:href="#Arial-BoldMT-44" transform="translate(822.460938 0)"/>
      <use xlink:href="#Arial-BoldMT-20" transform="translate(894.677734 0)"/>
      <use xlink:href="#Arial-BoldMT-51" transform="translate(922.460938 0)"/>
      <use xlink:href="#Arial-BoldMT-75" transform="translate(1000.244141 0)"/>
      <use xlink:href="#Arial-BoldMT-69" transform="translate(1061.328125 0)"/>
      <use xlink:href="#Arial-BoldMT-6e" transform="translate(1089.111328 0)"/>
      <use xlink:href="#Arial-BoldMT-74" transform="translate(1150.195312 0)"/>
      <use xlink:href="#Arial-BoldMT-69" transform="translate(1183.496094 0)"/>
      <use xlink:href="#Arial-BoldMT-6c" transform="translate(1211.279297 0)"/>
      <use xlink:href="#Arial-BoldMT-65" transform="translate(1239.0625 0)"/>
     </g>
    </g>
   </g>
   <g id="patch_3">
    <path d="M 70.384604 393.716875 
L 94.214471 393.716875 
L 94.214471 247.816028 
L 70.384604 247.816028 
z
" clip-path="url(#p63a1847fff)" style="fill: #bc2fe1; stroke: #ffffff; stroke-linejoin: miter"/>
   </g>
   <g id="patch_4">
    <path d="M 219.321271 393.716875 
L 243.151137 393.716875 
L 243.151137 51.335476 
L 219.321271 51.335476 
z
" clip-path="url(#p63a1847fff)" style="fill: #bc2fe1; stroke: #ffffff; stroke-linejoin: miter"/>
   </g>
   <g id="patch_5">
    <path d="M 368.257937 393.716875 
L 392.087804 393.716875 
L 392.087804 56.206021 
L 368.257937 56.206021 
z
" clip-path="url(#p63a1847fff)" style="fill: #bc2fe1; stroke: #ffffff; stroke-linejoin: miter"/>
   </g>
   <g id="patch_6">
    <path d="M 94.214471 393.716875 
L 118.044337 393.716875 
L 118.044337 247.958669 
L 94.214471 247.958669 
z
" clip-path="url(#p63a1847fff)" style="fill: #659aa4; stroke: #ffffff; stroke-linejoin: miter"/>
   </g>
   <g id="patch_7">
    <path d="M 243.151137 393.716875 
L 266.981004 393.716875 
L 266.981004 39.639494 
L 243.151137 39.639494 
z
" clip-path="url(#p63a1847fff)" style="fill: #659aa4; stroke: #ffffff; stroke-linejoin: miter"/>
   </g>
   <g id="patch_8">
    <path d="M 392.087804 393.716875 
L 415.917671 393.716875 
L 415.917671 54.478804 
L 392.087804 54.478804 
z
" clip-path="url(#p63a1847fff)" style="fill: #659aa4; stroke: #ffffff; stroke-linejoin: miter"/>
   </g>
   <g id="patch_9">
    <path d="M 118.044337 393.716875 
L 141.874204 393.716875 
L 141.874204 248.053987 
L 118.044337 248.053987 
z
" clip-path="url(#p63a1847fff)" style="fill: #2a2d4c; stroke: #ffffff; stroke-linejoin: miter"/>
   </g>
   <g id="patch_10">
    <path d="M 266.981004 393.716875 
L 290.810871 393.716875 
L 290.810871 51.814122 
L 266.981004 51.814122 
z
" clip-path="url(#p63a1847fff)" style="fill: #2a2d4c; stroke: #ffffff; stroke-linejoin: miter"/>
   </g>
   <g id="patch_11">
    <path d="M 415.917671 393.716875 
L 439.747537 393.716875 
L 439.747537 69.583016 
L 415.917671 69.583016 
z
" clip-path="url(#p63a1847fff)" style="fill: #2a2d4c; stroke: #ffffff; stroke-linejoin: miter"/>
   </g>
   <g id="patch_12">
    <path d="M 141.874204 393.716875 
L 165.704071 393.716875 
L 165.704071 247.146047 
L 141.874204 247.146047 
z
" clip-path="url(#p63a1847fff)" style="fill: #d4a823; stroke: #ffffff; stroke-linejoin: miter"/>
   </g>
   <g id="patch_13">
    <path d="M 290.810871 393.716875 
L 314.640737 393.716875 
L 314.640737 47.33477 
L 290.810871 47.33477 
z
" clip-path="url(#p63a1847fff)" style="fill: #d4a823; stroke: #ffffff; stroke-linejoin: miter"/>
   </g>
   <g id="patch_14">
    <path d="M 439.747537 393.716875 
L 463.577404 393.716875 
L 463.577404 59.161489 
L 439.747537 59.161489 
z
" clip-path="url(#p63a1847fff)" style="fill: #d4a823; stroke: #ffffff; stroke-linejoin: miter"/>
   </g>
   <g id="patch_15">
    <path d="M 165.704071 393.716875 
L 189.533937 393.716875 
L 189.533937 246.30144 
L 165.704071 246.30144 
z
" clip-path="url(#p63a1847fff)" style="fill: #eb7f75; stroke: #ffffff; stroke-linejoin: miter"/>
   </g>
   <g id="patch_16">
    <path d="M 314.640737 393.716875 
L 338.470604 393.716875 
L 338.470604 77.71375 
L 314.640737 77.71375 
z
" clip-path="url(#p63a1847fff)" style="fill: #eb7f75; stroke: #ffffff; stroke-linejoin: miter"/>
   </g>
   <g id="patch_17">
    <path d="M 463.577404 393.716875 
L 487.407271 393.716875 
L 487.407271 65.975737 
L 463.577404 65.975737 
z
" clip-path="url(#p63a1847fff)" style="fill: #eb7f75; stroke: #ffffff; stroke-linejoin: miter"/>
   </g>
   <g id="patch_18">
    <path d="M 129.959271 393.716875 
L 129.959271 393.716875 
L 129.959271 393.716875 
L 129.959271 393.716875 
z
" clip-path="url(#p63a1847fff)" style="fill: #bc2fe1; stroke: #ffffff; stroke-linejoin: miter"/>
   </g>
   <g id="patch_19">
    <path d="M 129.959271 393.716875 
L 129.959271 393.716875 
L 129.959271 393.716875 
L 129.959271 393.716875 
z
" clip-path="url(#p63a1847fff)" style="fill: #659aa4; stroke: #ffffff; stroke-linejoin: miter"/>
   </g>
   <g id="patch_20">
    <path d="M 129.959271 393.716875 
L 129.959271 393.716875 
L 129.959271 393.716875 
L 129.959271 393.716875 
z
" clip-path="url(#p63a1847fff)" style="fill: #2a2d4c; stroke: #ffffff; stroke-linejoin: miter"/>
   </g>
   <g id="patch_21">
    <path d="M 129.959271 393.716875 
L 129.959271 393.716875 
L 129.959271 393.716875 
L 129.959271 393.716875 
z
" clip-path="url(#p63a1847fff)" style="fill: #d4a823; stroke: #ffffff; stroke-linejoin: miter"/>
   </g>
   <g id="patch_22">
    <path d="M 129.959271 393.716875 
L 129.959271 393.716875 
L 129.959271 393.716875 
L 129.959271 393.716875 
z
" clip-path="url(#p63a1847fff)" style="fill: #eb7f75; stroke: #ffffff; stroke-linejoin: miter"/>
   </g>
   <g id="line2d_9">
    <path clip-path="url(#p63a1847fff)" style="fill: none; stroke: #424242; stroke-width: 2.25; stroke-linecap: round"/>
   </g>
   <g id="line2d_10">
    <path clip-path="url(#p63a1847fff)" style="fill: none; stroke: #424242; stroke-width: 2.25; stroke-linecap: round"/>
   </g>
   <g id="line2d_11">
    <path clip-path="url(#p63a1847fff)" style="fill: none; stroke: #424242; stroke-width: 2.25; stroke-linecap: round"/>
   </g>
   <g id="line2d_12">
    <path clip-path="url(#p63a1847fff)" style="fill: none; stroke: #424242; stroke-width: 2.25; stroke-linecap: round"/>
   </g>
   <g id="line2d_13">
    <path clip-path="url(#p63a1847fff)" style="fill: none; stroke: #424242; stroke-width: 2.25; stroke-linecap: round"/>
   </g>
   <g id="line2d_14">
    <path clip-path="url(#p63a1847fff)" style="fill: none; stroke: #424242; stroke-width: 2.25; stroke-linecap: round"/>
   </g>
   <g id="line2d_15">
    <path clip-path="url(#p63a1847fff)" style="fill: none; stroke: #424242; stroke-width: 2.25; stroke-linecap: round"/>
   </g>
   <g id="line2d_16">
    <path clip-path="url(#p63a1847fff)" style="fill: none; stroke: #424242; stroke-width: 2.25; stroke-linecap: round"/>
   </g>
   <g id="line2d_17">
    <path clip-path="url(#p63a1847fff)" style="fill: none; stroke: #424242; stroke-width: 2.25; stroke-linecap: round"/>
   </g>
   <g id="line2d_18">
    <path clip-path="url(#p63a1847fff)" style="fill: none; stroke: #424242; stroke-width: 2.25; stroke-linecap: round"/>
   </g>
   <g id="line2d_19">
    <path clip-path="url(#p63a1847fff)" style="fill: none; stroke: #424242; stroke-width: 2.25; stroke-linecap: round"/>
   </g>
   <g id="line2d_20">
    <path clip-path="url(#p63a1847fff)" style="fill: none; stroke: #424242; stroke-width: 2.25; stroke-linecap: round"/>
   </g>
   <g id="line2d_21">
    <path clip-path="url(#p63a1847fff)" style="fill: none; stroke: #424242; stroke-width: 2.25; stroke-linecap: round"/>
   </g>
   <g id="line2d_22">
    <path clip-path="url(#p63a1847fff)" style="fill: none; stroke: #424242; stroke-width: 2.25; stroke-linecap: round"/>
   </g>
   <g id="line2d_23">
    <path clip-path="url(#p63a1847fff)" style="fill: none; stroke: #424242; stroke-width: 2.25; stroke-linecap: round"/>
   </g>
   <g id="patch_23">
    <path d="M 55.490938 393.716875 
L 55.490938 21.935625 
" style="fill: none; stroke: #cccccc; stroke-width: 1.25; stroke-linejoin: miter; stroke-linecap: square"/>
   </g>
   <g id="patch_24">
    <path d="M 55.490938 393.716875 
L 502.300937 393.716875 
" style="fill: none; stroke: #cccccc; stroke-width: 1.25; stroke-linejoin: miter; stroke-linecap: square"/>
   </g>
   <g id="text_13">
    <!-- Mean results by metric and IMD Quintile -->
    <g style="fill: #242852" transform="translate(55.490938 15.935625) scale(0.12 -0.12)">
     <defs>
      <path id="Arial-BoldMT-72" d="M 1300 0 
L 422 0 
L 422 3319 
L 1238 3319 
L 1238 2847 
Q 1447 3181 1614 3287 
Q 1781 3394 1994 3394 
Q 2294 3394 2572 3228 
L 2300 2463 
Q 2078 2606 1888 2606 
Q 1703 2606 1575 2504 
Q 1447 2403 1373 2137 
Q 1300 1872 1300 1025 
L 1300 0 
z
" transform="scale(0.015625)"/>
      <path id="Arial-BoldMT-73" d="M 150 947 
L 1031 1081 
Q 1088 825 1259 692 
Q 1431 559 1741 559 
Q 2081 559 2253 684 
Q 2369 772 2369 919 
Q 2369 1019 2306 1084 
Q 2241 1147 2013 1200 
Q 950 1434 666 1628 
Q 272 1897 272 2375 
Q 272 2806 612 3100 
Q 953 3394 1669 3394 
Q 2350 3394 2681 3172 
Q 3013 2950 3138 2516 
L 2309 2363 
Q 2256 2556 2107 2659 
Q 1959 2763 1684 2763 
Q 1338 2763 1188 2666 
Q 1088 2597 1088 2488 
Q 1088 2394 1175 2328 
Q 1294 2241 1995 2081 
Q 2697 1922 2975 1691 
Q 3250 1456 3250 1038 
Q 3250 581 2869 253 
Q 2488 -75 1741 -75 
Q 1063 -75 667 200 
Q 272 475 150 947 
z
" transform="scale(0.015625)"/>
      <path id="Arial-BoldMT-6d" d="M 394 3319 
L 1203 3319 
L 1203 2866 
Q 1638 3394 2238 3394 
Q 2556 3394 2790 3262 
Q 3025 3131 3175 2866 
Q 3394 3131 3647 3262 
Q 3900 3394 4188 3394 
Q 4553 3394 4806 3245 
Q 5059 3097 5184 2809 
Q 5275 2597 5275 2122 
L 5275 0 
L 4397 0 
L 4397 1897 
Q 4397 2391 4306 2534 
Q 4184 2722 3931 2722 
Q 3747 2722 3584 2609 
Q 3422 2497 3350 2280 
Q 3278 2063 3278 1594 
L 3278 0 
L 2400 0 
L 2400 1819 
Q 2400 2303 2353 2443 
Q 2306 2584 2207 2653 
Q 2109 2722 1941 2722 
Q 1738 2722 1575 2612 
Q 1413 2503 1342 2297 
Q 1272 2091 1272 1613 
L 1272 0 
L 394 0 
L 394 3319 
z
" transform="scale(0.015625)"/>
      <path id="Arial-BoldMT-63" d="M 3353 2338 
L 2488 2181 
Q 2444 2441 2289 2572 
Q 2134 2703 1888 2703 
Q 1559 2703 1364 2476 
Q 1169 2250 1169 1719 
Q 1169 1128 1367 884 
Q 1566 641 1900 641 
Q 2150 641 2309 783 
Q 2469 925 2534 1272 
L 3397 1125 
Q 3263 531 2881 228 
Q 2500 -75 1859 -75 
Q 1131 -75 698 384 
Q 266 844 266 1656 
Q 266 2478 700 2936 
Q 1134 3394 1875 3394 
Q 2481 3394 2839 3133 
Q 3197 2872 3353 2338 
z
" transform="scale(0.015625)"/>
      <path id="Arial-BoldMT-64" d="M 3503 0 
L 2688 0 
L 2688 488 
Q 2484 203 2207 64 
Q 1931 -75 1650 -75 
Q 1078 -75 670 386 
Q 263 847 263 1672 
Q 263 2516 659 2955 
Q 1056 3394 1663 3394 
Q 2219 3394 2625 2931 
L 2625 4581 
L 3503 4581 
L 3503 0 
z
M 1159 1731 
Q 1159 1200 1306 963 
Q 1519 619 1900 619 
Q 2203 619 2415 876 
Q 2628 1134 2628 1647 
Q 2628 2219 2422 2470 
Q 2216 2722 1894 2722 
Q 1581 2722 1370 2473 
Q 1159 2225 1159 1731 
z
" transform="scale(0.015625)"/>
     </defs>
     <use xlink:href="#Arial-BoldMT-4d"/>
     <use xlink:href="#Arial-BoldMT-65" transform="translate(83.300781 0)"/>
     <use xlink:href="#Arial-BoldMT-61" transform="translate(138.916016 0)"/>
     <use xlink:href="#Arial-BoldMT-6e" transform="translate(194.53125 0)"/>
     <use xlink:href="#Arial-BoldMT-20" transform="translate(255.615234 0)"/>
     <use xlink:href="#Arial-BoldMT-72" transform="translate(283.398438 0)"/>
     <use xlink:href="#Arial-BoldMT-65" transform="translate(322.314453 0)"/>
     <use xlink:href="#Arial-BoldMT-73" transform="translate(377.929688 0)"/>
     <use xlink:href="#Arial-BoldMT-75" transform="translate(433.544922 0)"/>
     <use xlink:href="#Arial-BoldMT-6c" transform="translate(494.628906 0)"/>
     <use xlink:href="#Arial-BoldMT-74" transform="translate(522.412109 0)"/>
     <use xlink:href="#Arial-BoldMT-73" transform="translate(555.712891 0)"/>
     <use xlink:href="#Arial-BoldMT-20" transform="translate(611.328125 0)"/>
     <use xlink:href="#Arial-BoldMT-62" transform="translate(639.111328 0)"/>
     <use xlink:href="#Arial-BoldMT-79" transform="translate(700.195312 0)"/>
     <use xlink:href="#Arial-BoldMT-20" transform="translate(755.810547 0)"/>
     <use xlink:href="#Arial-BoldMT-6d" transform="translate(783.59375 0)"/>
     <use xlink:href="#Arial-BoldMT-65" transform="translate(872.509766 0)"/>
     <use xlink:href="#Arial-BoldMT-74" transform="translate(928.125 0)"/>
     <use xlink:href="#Arial-BoldMT-72" transform="translate(961.425781 0)"/>
     <use xlink:href="#Arial-BoldMT-69" transform="translate(1000.341797 0)"/>
     <use xlink:href="#Arial-BoldMT-63" transform="translate(1028.125 0)"/>
     <use xlink:href="#Arial-BoldMT-20" transform="translate(1083.740234 0)"/>
     <use xlink:href="#Arial-BoldMT-61" transform="translate(1111.523438 0)"/>
     <use xlink:href="#Arial-BoldMT-6e" transform="translate(1167.138672 0)"/>
     <use xlink:href="#Arial-BoldMT-64" transform="translate(1228.222656 0)"/>
     <use xlink:href="#Arial-BoldMT-20" transform="translate(1289.306641 0)"/>
     <use xlink:href="#Arial-BoldMT-49" transform="translate(1317.089844 0)"/>
     <use xlink:href="#Arial-BoldMT-4d" transform="translate(1344.873047 0)"/>
     <use xlink:href="#Arial-BoldMT-44" transform="translate(1428.173828 0)"/>
     <use xlink:href="#Arial-BoldMT-20" transform="translate(1500.390625 0)"/>
     <use xlink:href="#Arial-BoldMT-51" transform="translate(1528.173828 0)"/>
     <use xlink:href="#Arial-BoldMT-75" transform="translate(1605.957031 0)"/>
     <use xlink:href="#Arial-BoldMT-69" transform="translate(1667.041016 0)"/>
     <use xlink:href="#Arial-BoldMT-6e" transform="translate(1694.824219 0)"/>
     <use xlink:href="#Arial-BoldMT-74" transform="translate(1755.908203 0)"/>
     <use xlink:href="#Arial-BoldMT-69" transform="translate(1789.208984 0)"/>
     <use xlink:href="#Arial-BoldMT-6c" transform="translate(1816.992188 0)"/>
     <use xlink:href="#Arial-BoldMT-65" transform="translate(1844.775391 0)"/>
    </g>
   </g>
   <g id="legend_1">
    <g id="text_14">
     <!-- IMD Quintile (1 = Most Deprived) -->
     <g transform="translate(520.237137 39.67875) scale(0.12 -0.12)">
      <defs>
       <path id="ArialMT-49" d="M 597 0 
L 597 4581 
L 1203 4581 
L 1203 0 
L 597 0 
z
" transform="scale(0.015625)"/>
       <path id="ArialMT-4d" d="M 475 0 
L 475 4581 
L 1388 4581 
L 2472 1338 
Q 2622 884 2691 659 
Q 2769 909 2934 1394 
L 4031 4581 
L 4847 4581 
L 4847 0 
L 4263 0 
L 4263 3834 
L 2931 0 
L 2384 0 
L 1059 3900 
L 1059 0 
L 475 0 
z
" transform="scale(0.015625)"/>
       <path id="ArialMT-44" d="M 494 0 
L 494 4581 
L 2072 4581 
Q 2606 4581 2888 4516 
Q 3281 4425 3559 4188 
Q 3922 3881 4101 3404 
Q 4281 2928 4281 2316 
Q 4281 1794 4159 1391 
Q 4038 988 3847 723 
Q 3656 459 3429 307 
Q 3203 156 2883 78 
Q 2563 0 2147 0 
L 494 0 
z
M 1100 541 
L 2078 541 
Q 2531 541 2789 625 
Q 3047 709 3200 863 
Q 3416 1078 3536 1442 
Q 3656 1806 3656 2325 
Q 3656 3044 3420 3430 
Q 3184 3816 2847 3947 
Q 2603 4041 2063 4041 
L 1100 4041 
L 1100 541 
z
" transform="scale(0.015625)"/>
       <path id="ArialMT-75" d="M 2597 0 
L 2597 488 
Q 2209 -75 1544 -75 
Q 1250 -75 995 37 
Q 741 150 617 320 
Q 494 491 444 738 
Q 409 903 409 1263 
L 409 3319 
L 972 3319 
L 972 1478 
Q 972 1038 1006 884 
Q 1059 663 1231 536 
Q 1403 409 1656 409 
Q 1909 409 2131 539 
Q 2353 669 2445 892 
Q 2538 1116 2538 1541 
L 2538 3319 
L 3100 3319 
L 3100 0 
L 2597 0 
z
" transform="scale(0.015625)"/>
       <path id="ArialMT-6c" d="M 409 0 
L 409 4581 
L 972 4581 
L 972 0 
L 409 0 
z
" transform="scale(0.015625)"/>
       <path id="ArialMT-28" d="M 1497 -1347 
Q 1031 -759 709 28 
Q 388 816 388 1659 
Q 388 2403 628 3084 
Q 909 3875 1497 4659 
L 1900 4659 
Q 1522 4009 1400 3731 
Q 1209 3300 1100 2831 
Q 966 2247 966 1656 
Q 966 153 1900 -1347 
L 1497 -1347 
z
" transform="scale(0.015625)"/>
       <path id="ArialMT-3d" d="M 3381 2694 
L 356 2694 
L 356 3219 
L 3381 3219 
L 3381 2694 
z
M 3381 1303 
L 356 1303 
L 356 1828 
L 3381 1828 
L 3381 1303 
z
" transform="scale(0.015625)"/>
       <path id="ArialMT-29" d="M 791 -1347 
L 388 -1347 
Q 1322 153 1322 1656 
Q 1322 2244 1188 2822 
Q 1081 3291 891 3722 
Q 769 4003 388 4659 
L 791 4659 
Q 1378 3875 1659 3084 
Q 1900 2403 1900 1659 
Q 1900 816 1576 28 
Q 1253 -759 791 -1347 
z
" transform="scale(0.015625)"/>
      </defs>
      <use xlink:href="#ArialMT-49"/>
      <use xlink:href="#ArialMT-4d" transform="translate(27.783203 0)"/>
      <use xlink:href="#ArialMT-44" transform="translate(111.083984 0)"/>
      <use xlink:href="#ArialMT-20" transform="translate(183.300781 0)"/>
      <use xlink:href="#ArialMT-51" transform="translate(211.083984 0)"/>
      <use xlink:href="#ArialMT-75" transform="translate(288.867188 0)"/>
      <use xlink:href="#ArialMT-69" transform="translate(344.482422 0)"/>
      <use xlink:href="#ArialMT-6e" transform="translate(366.699219 0)"/>
      <use xlink:href="#ArialMT-74" transform="translate(422.314453 0)"/>
      <use xlink:href="#ArialMT-69" transform="translate(450.097656 0)"/>
      <use xlink:href="#ArialMT-6c" transform="translate(472.314453 0)"/>
      <use xlink:href="#ArialMT-65" transform="translate(494.53125 0)"/>
      <use xlink:href="#ArialMT-20" transform="translate(550.146484 0)"/>
      <use xlink:href="#ArialMT-28" transform="translate(577.929688 0)"/>
      <use xlink:href="#ArialMT-31" transform="translate(611.230469 0)"/>
      <use xlink:href="#ArialMT-20" transform="translate(666.845703 0)"/>
      <use xlink:href="#ArialMT-3d" transform="translate(694.628906 0)"/>
      <use xlink:href="#ArialMT-20" transform="translate(753.027344 0)"/>
      <use xlink:href="#ArialMT-4d" transform="translate(780.810547 0)"/>
      <use xlink:href="#ArialMT-6f" transform="translate(864.111328 0)"/>
      <use xlink:href="#ArialMT-73" transform="translate(919.726562 0)"/>
      <use xlink:href="#ArialMT-74" transform="translate(969.726562 0)"/>
      <use xlink:href="#ArialMT-20" transform="translate(997.509766 0)"/>
      <use xlink:href="#ArialMT-44" transform="translate(1025.292969 0)"/>
      <use xlink:href="#ArialMT-65" transform="translate(1097.509766 0)"/>
      <use xlink:href="#ArialMT-70" transform="translate(1153.125 0)"/>
      <use xlink:href="#ArialMT-72" transform="translate(1208.740234 0)"/>
      <use xlink:href="#ArialMT-69" transform="translate(1242.041016 0)"/>
      <use xlink:href="#ArialMT-76" transform="translate(1264.257812 0)"/>
      <use xlink:href="#ArialMT-65" transform="translate(1314.257812 0)"/>
      <use xlink:href="#ArialMT-64" transform="translate(1369.873047 0)"/>
      <use xlink:href="#ArialMT-29" transform="translate(1425.488281 0)"/>
     </g>
    </g>
    <g id="patch_25">
     <path d="M 597.979794 54.362188 
L 607.979794 54.362188 
L 607.979794 47.362188 
L 597.979794 47.362188 
z
" style="fill: #bc2fe1; stroke: #ffffff; stroke-linejoin: miter"/>
    </g>
    <g id="text_15">
     <!-- 1 -->
     <g transform="translate(611.979794 54.362188) scale(0.1 -0.1)">
      <use xlink:href="#ArialMT-31"/>
     </g>
    </g>
    <g id="patch_26">
     <path d="M 597.979794 68.5075 
L 607.979794 68.5075 
L 607.979794 61.5075 
L 597.979794 61.5075 
z
" style="fill: #659aa4; stroke: #ffffff; stroke-linejoin: miter"/>
    </g>
    <g id="text_16">
     <!-- 2 -->
     <g transform="translate(611.979794 68.5075) scale(0.1 -0.1)">
      <use xlink:href="#ArialMT-32"/>
     </g>
    </g>
    <g id="patch_27">
     <path d="M 597.979794 82.652813 
L 607.979794 82.652813 
L 607.979794 75.652813 
L 597.979794 75.652813 
z
" style="fill: #2a2d4c; stroke: #ffffff; stroke-linejoin: miter"/>
    </g>
    <g id="text_17">
     <!-- 3 -->
     <g transform="translate(611.979794 82.652813) scale(0.1 -0.1)">
      <defs>
       <path id="ArialMT-33" d="M 269 1209 
L 831 1284 
Q 928 806 1161 595 
Q 1394 384 1728 384 
Q 2125 384 2398 659 
Q 2672 934 2672 1341 
Q 2672 1728 2419 1979 
Q 2166 2231 1775 2231 
Q 1616 2231 1378 2169 
L 1441 2663 
Q 1497 2656 1531 2656 
Q 1891 2656 2178 2843 
Q 2466 3031 2466 3422 
Q 2466 3731 2256 3934 
Q 2047 4138 1716 4138 
Q 1388 4138 1169 3931 
Q 950 3725 888 3313 
L 325 3413 
Q 428 3978 793 4289 
Q 1159 4600 1703 4600 
Q 2078 4600 2393 4439 
Q 2709 4278 2876 4000 
Q 3044 3722 3044 3409 
Q 3044 3113 2884 2869 
Q 2725 2625 2413 2481 
Q 2819 2388 3044 2092 
Q 3269 1797 3269 1353 
Q 3269 753 2831 336 
Q 2394 -81 1725 -81 
Q 1122 -81 723 278 
Q 325 638 269 1209 
z
" transform="scale(0.015625)"/>
      </defs>
      <use xlink:href="#ArialMT-33"/>
     </g>
    </g>
    <g id="patch_28">
     <path d="M 597.979794 96.798125 
L 607.979794 96.798125 
L 607.979794 89.798125 
L 597.979794 89.798125 
z
" style="fill: #d4a823; stroke: #ffffff; stroke-linejoin: miter"/>
    </g>
    <g id="text_18">
     <!-- 4 -->
     <g transform="translate(611.979794 96.798125) scale(0.1 -0.1)">
      <use xlink:href="#ArialMT-34"/>
     </g>
    </g>
    <g id="patch_29">
     <path d="M 597.979794 110.943438 
L 607.979794 110.943438 
L 607.979794 103.943438 
L 597.979794 103.943438 
z
" style="fill: #eb7f75; stroke: #ffffff; stroke-linejoin: miter"/>
    </g>
    <g id="text_19">
     <!-- 5 -->
     <g transform="translate(611.979794 110.943438) scale(0.1 -0.1)">
      <defs>
       <path id="ArialMT-35" d="M 266 1200 
L 856 1250 
Q 922 819 1161 601 
Q 1400 384 1738 384 
Q 2144 384 2425 690 
Q 2706 997 2706 1503 
Q 2706 1984 2436 2262 
Q 2166 2541 1728 2541 
Q 1456 2541 1237 2417 
Q 1019 2294 894 2097 
L 366 2166 
L 809 4519 
L 3088 4519 
L 3088 3981 
L 1259 3981 
L 1013 2750 
Q 1425 3038 1878 3038 
Q 2478 3038 2890 2622 
Q 3303 2206 3303 1553 
Q 3303 931 2941 478 
Q 2500 -78 1738 -78 
Q 1113 -78 717 272 
Q 322 622 266 1200 
z
" transform="scale(0.015625)"/>
      </defs>
      <use xlink:href="#ArialMT-35"/>
     </g>
    </g>
   </g>
  </g>
  <g id="text_20">
   <!-- Figure 1.4 showing Achieved QOF points with y-axis starting at zero; conversion of points to payments per registered and weighted population. -->
   <g style="fill: #333333" transform="translate(102.350937 420.253125) scale(0.08 -0.08)">
    <defs>
     <path id="Arial-ItalicMT-46" d="M 291 0 
L 1247 4581 
L 4225 4581 
L 4116 4059 
L 1750 4059 
L 1447 2600 
L 3856 2600 
L 3747 2078 
L 1338 2078 
L 903 0 
L 291 0 
z
" transform="scale(0.015625)"/>
     <path id="Arial-ItalicMT-69" d="M 1016 3941 
L 1150 4581 
L 1713 4581 
L 1578 3941 
L 1016 3941 
z
M 191 0 
L 884 3319 
L 1450 3319 
L 756 0 
L 191 0 
z
" transform="scale(0.015625)"/>
     <path id="Arial-ItalicMT-67" d="M 181 -300 
L 753 -353 
Q 747 -547 800 -644 
Q 853 -741 969 -794 
Q 1122 -863 1366 -863 
Q 1878 -863 2103 -597 
Q 2250 -419 2375 178 
L 2431 447 
Q 1991 0 1494 0 
Q 991 0 652 370 
Q 313 741 313 1419 
Q 313 1978 580 2447 
Q 847 2916 1215 3155 
Q 1584 3394 1975 3394 
Q 2628 3394 2981 2775 
L 3094 3319 
L 3613 3319 
L 2944 116 
Q 2834 -413 2656 -708 
Q 2478 -1003 2161 -1165 
Q 1844 -1328 1428 -1328 
Q 1028 -1328 739 -1225 
Q 450 -1122 308 -923 
Q 166 -725 166 -469 
Q 166 -391 181 -300 
z
M 888 1469 
Q 888 1128 953 956 
Q 1047 716 1220 589 
Q 1394 463 1606 463 
Q 1884 463 2159 658 
Q 2434 853 2604 1262 
Q 2775 1672 2775 2044 
Q 2775 2453 2548 2695 
Q 2322 2938 1988 2938 
Q 1781 2938 1587 2827 
Q 1394 2716 1226 2489 
Q 1059 2263 973 1947 
Q 888 1631 888 1469 
z
" transform="scale(0.015625)"/>
     <path id="Arial-ItalicMT-75" d="M 2478 600 
Q 1881 -75 1256 -75 
Q 872 -75 636 145 
Q 400 366 400 684 
Q 400 894 506 1403 
L 906 3319 
L 1472 3319 
L 1028 1197 
Q 972 931 972 784 
Q 972 597 1086 492 
Q 1200 388 1422 388 
Q 1659 388 1886 503 
Q 2113 619 2277 816 
Q 2441 1013 2544 1281 
Q 2613 1453 2703 1884 
L 3003 3319 
L 3569 3319 
L 2875 0 
L 2353 0 
L 2478 600 
z
" transform="scale(0.015625)"/>
     <path id="Arial-ItalicMT-72" d="M 213 0 
L 906 3319 
L 1406 3319 
L 1266 2641 
Q 1522 3025 1767 3209 
Q 2013 3394 2269 3394 
Q 2438 3394 2684 3272 
L 2453 2747 
Q 2306 2853 2131 2853 
Q 1834 2853 1521 2522 
Q 1209 2191 1031 1331 
L 750 0 
L 213 0 
z
" transform="scale(0.015625)"/>
     <path id="Arial-ItalicMT-65" d="M 2650 1128 
L 3200 1072 
Q 3081 663 2654 294 
Q 2228 -75 1638 -75 
Q 1269 -75 961 95 
Q 653 266 492 591 
Q 331 916 331 1331 
Q 331 1875 582 2386 
Q 834 2897 1234 3145 
Q 1634 3394 2100 3394 
Q 2694 3394 3048 3025 
Q 3403 2656 3403 2019 
Q 3403 1775 3359 1519 
L 916 1519 
Q 903 1422 903 1344 
Q 903 878 1117 633 
Q 1331 388 1641 388 
Q 1931 388 2212 578 
Q 2494 769 2650 1128 
z
M 1006 1950 
L 2869 1950 
Q 2872 2038 2872 2075 
Q 2872 2500 2659 2726 
Q 2447 2953 2113 2953 
Q 1750 2953 1451 2703 
Q 1153 2453 1006 1950 
z
" transform="scale(0.015625)"/>
     <path id="Arial-ItalicMT-20" transform="scale(0.015625)"/>
     <path id="Arial-ItalicMT-31" d="M 1541 0 
L 2266 3459 
Q 1797 3091 947 2869 
L 1053 3381 
Q 1475 3550 1886 3822 
Q 2297 4094 2503 4297 
Q 2628 4422 2741 4600 
L 3069 4600 
L 2109 0 
L 1541 0 
z
" transform="scale(0.015625)"/>
     <path id="Arial-ItalicMT-2e" d="M 369 0 
L 503 641 
L 1144 641 
L 1006 0 
L 369 0 
z
" transform="scale(0.015625)"/>
     <path id="Arial-ItalicMT-34" d="M 1913 0 
L 2159 1169 
L 291 1169 
L 409 1728 
L 2975 4581 
L 3438 4581 
L 2828 1669 
L 3472 1669 
L 3369 1169 
L 2725 1169 
L 2478 0 
L 1913 0 
z
M 2263 1669 
L 2663 3581 
L 956 1669 
L 2263 1669 
z
" transform="scale(0.015625)"/>
     <path id="Arial-ItalicMT-73" d="M 266 1134 
L 831 1169 
Q 831 925 906 753 
Q 981 581 1182 472 
Q 1384 363 1653 363 
Q 2028 363 2215 513 
Q 2403 663 2403 866 
Q 2403 1013 2291 1144 
Q 2175 1275 1726 1467 
Q 1278 1659 1153 1738 
Q 944 1866 837 2039 
Q 731 2213 731 2438 
Q 731 2831 1043 3112 
Q 1356 3394 1919 3394 
Q 2544 3394 2870 3105 
Q 3197 2816 3209 2344 
L 2656 2306 
Q 2644 2606 2444 2781 
Q 2244 2956 1878 2956 
Q 1584 2956 1421 2822 
Q 1259 2688 1259 2531 
Q 1259 2375 1400 2256 
Q 1494 2175 1884 2006 
Q 2534 1725 2703 1563 
Q 2972 1303 2972 931 
Q 2972 684 2820 446 
Q 2669 209 2358 67 
Q 2047 -75 1625 -75 
Q 1050 -75 647 209 
Q 244 494 266 1134 
z
" transform="scale(0.015625)"/>
     <path id="Arial-ItalicMT-68" d="M 213 0 
L 1169 4581 
L 1734 4581 
L 1369 2822 
Q 1684 3128 1956 3261 
Q 2228 3394 2516 3394 
Q 2928 3394 3156 3176 
Q 3384 2959 3384 2603 
Q 3384 2428 3284 1959 
L 2875 0 
L 2309 0 
L 2731 2009 
Q 2822 2447 2822 2559 
Q 2822 2722 2709 2825 
Q 2597 2928 2384 2928 
Q 2078 2928 1800 2767 
Q 1522 2606 1364 2326 
Q 1206 2047 1075 1425 
L 778 0 
L 213 0 
z
" transform="scale(0.015625)"/>
     <path id="Arial-ItalicMT-6f" d="M 313 1259 
Q 313 2231 884 2869 
Q 1356 3394 2122 3394 
Q 2722 3394 3089 3019 
Q 3456 2644 3456 2006 
Q 3456 1434 3225 942 
Q 2994 450 2567 187 
Q 2141 -75 1669 -75 
Q 1281 -75 964 90 
Q 647 256 480 559 
Q 313 863 313 1259 
z
M 878 1316 
Q 878 847 1103 605 
Q 1328 363 1675 363 
Q 1856 363 2034 436 
Q 2213 509 2366 659 
Q 2519 809 2626 1001 
Q 2734 1194 2800 1416 
Q 2897 1725 2897 2009 
Q 2897 2459 2670 2707 
Q 2444 2956 2100 2956 
Q 1834 2956 1615 2829 
Q 1397 2703 1220 2459 
Q 1044 2216 961 1892 
Q 878 1569 878 1316 
z
" transform="scale(0.015625)"/>
     <path id="Arial-ItalicMT-77" d="M 844 0 
L 497 3319 
L 1041 3319 
L 1191 1828 
L 1250 991 
Q 1256 897 1269 613 
Q 1363 931 1428 1101 
Q 1494 1272 1638 1588 
L 2428 3319 
L 3044 3319 
L 3153 1659 
Q 3178 1281 3184 650 
Q 3341 1069 3694 1813 
L 4406 3319 
L 4972 3319 
L 3350 0 
L 2763 0 
L 2638 1947 
Q 2625 2128 2619 2653 
Q 2491 2319 2316 1931 
L 1438 0 
L 844 0 
z
" transform="scale(0.015625)"/>
     <path id="Arial-ItalicMT-6e" d="M 213 0 
L 906 3319 
L 1419 3319 
L 1297 2741 
Q 1631 3081 1922 3237 
Q 2213 3394 2516 3394 
Q 2919 3394 3148 3175 
Q 3378 2956 3378 2591 
Q 3378 2406 3297 2009 
L 2875 0 
L 2309 0 
L 2750 2103 
Q 2816 2409 2816 2556 
Q 2816 2722 2702 2825 
Q 2588 2928 2372 2928 
Q 1938 2928 1598 2615 
Q 1259 2303 1100 1544 
L 778 0 
L 213 0 
z
" transform="scale(0.015625)"/>
     <path id="Arial-ItalicMT-41" d="M -128 0 
L 2469 4581 
L 3191 4581 
L 3947 0 
L 3353 0 
L 3131 1319 
L 1278 1319 
L 544 0 
L -128 0 
z
M 1541 1791 
L 3056 1791 
L 2878 2941 
Q 2775 3625 2750 4081 
Q 2594 3688 2294 3147 
L 1541 1791 
z
" transform="scale(0.015625)"/>
     <path id="Arial-ItalicMT-63" d="M 2503 1209 
L 3069 1150 
Q 2856 528 2464 226 
Q 2072 -75 1572 -75 
Q 1031 -75 695 275 
Q 359 625 359 1253 
Q 359 1797 575 2322 
Q 791 2847 1192 3120 
Q 1594 3394 2109 3394 
Q 2644 3394 2956 3092 
Q 3269 2791 3269 2294 
L 2713 2256 
Q 2709 2572 2529 2750 
Q 2350 2928 2056 2928 
Q 1716 2928 1466 2712 
Q 1216 2497 1073 2058 
Q 931 1619 931 1213 
Q 931 788 1118 575 
Q 1306 363 1581 363 
Q 1856 363 2107 572 
Q 2359 781 2503 1209 
z
" transform="scale(0.015625)"/>
     <path id="Arial-ItalicMT-76" d="M 1050 0 
L 506 3319 
L 1056 3319 
L 1341 1491 
Q 1388 1191 1456 513 
Q 1619 866 1872 1322 
L 2981 3319 
L 3578 3319 
L 1678 0 
L 1050 0 
z
" transform="scale(0.015625)"/>
     <path id="Arial-ItalicMT-64" d="M 2450 481 
Q 1966 -75 1438 -75 
Q 966 -75 652 273 
Q 338 622 338 1284 
Q 338 1891 586 2392 
Q 834 2894 1207 3144 
Q 1581 3394 1956 3394 
Q 2575 3394 2891 2797 
L 3266 4581 
L 3828 4581 
L 2872 0 
L 2350 0 
L 2450 481 
z
M 900 1391 
Q 900 1044 969 844 
Q 1038 644 1203 511 
Q 1369 378 1600 378 
Q 1984 378 2297 778 
Q 2716 1309 2716 2091 
Q 2716 2484 2509 2706 
Q 2303 2928 1991 2928 
Q 1788 2928 1620 2837 
Q 1453 2747 1289 2530 
Q 1125 2313 1012 1978 
Q 900 1644 900 1391 
z
" transform="scale(0.015625)"/>
     <path id="Arial-ItalicMT-51" d="M 3869 369 
Q 4100 94 4494 -163 
L 4222 -525 
Q 3806 -253 3475 134 
Q 3009 -84 2588 -84 
Q 2250 -84 1847 44 
Q 1444 172 1172 431 
Q 900 691 745 1098 
Q 591 1506 591 2000 
Q 591 2597 819 3144 
Q 1009 3594 1314 3920 
Q 1619 4247 1981 4425 
Q 2459 4659 3016 4659 
Q 3872 4659 4411 4101 
Q 4950 3544 4950 2606 
Q 4950 1916 4662 1333 
Q 4375 750 3869 369 
z
M 3494 763 
Q 3872 1056 4106 1570 
Q 4341 2084 4341 2641 
Q 4341 3334 3959 3742 
Q 3578 4150 3025 4150 
Q 2563 4150 2134 3879 
Q 1706 3609 1450 3087 
Q 1194 2566 1194 1950 
Q 1194 1178 1675 756 
Q 2050 428 2478 428 
Q 2819 428 3091 534 
Q 2806 794 2506 950 
L 2728 1331 
Q 2931 1244 3095 1123 
Q 3259 1003 3494 763 
z
" transform="scale(0.015625)"/>
     <path id="Arial-ItalicMT-4f" d="M 584 1919 
Q 584 3144 1292 3901 
Q 2000 4659 3009 4659 
Q 3866 4659 4405 4101 
Q 4944 3544 4944 2606 
Q 4944 1938 4672 1366 
Q 4469 938 4159 627 
Q 3850 316 3497 147 
Q 3028 -78 2503 -78 
Q 1953 -78 1501 184 
Q 1050 447 817 917 
Q 584 1388 584 1919 
z
M 1188 1888 
Q 1188 1484 1355 1146 
Q 1522 809 1853 618 
Q 2184 428 2550 428 
Q 2903 428 3222 595 
Q 3541 763 3792 1061 
Q 4044 1359 4189 1795 
Q 4334 2231 4334 2653 
Q 4334 3338 3951 3744 
Q 3569 4150 3006 4150 
Q 2288 4150 1738 3536 
Q 1188 2922 1188 1888 
z
" transform="scale(0.015625)"/>
     <path id="Arial-ItalicMT-70" d="M -66 -1272 
L 894 3319 
L 1416 3319 
L 1319 2856 
Q 1609 3159 1839 3276 
Q 2069 3394 2325 3394 
Q 2800 3394 3112 3048 
Q 3425 2703 3425 2059 
Q 3425 1541 3253 1114 
Q 3081 688 2831 428 
Q 2581 169 2325 47 
Q 2069 -75 1800 -75 
Q 1203 -75 875 531 
L 500 -1272 
L -66 -1272 
z
M 1053 1356 
Q 1053 984 1106 841 
Q 1184 638 1362 513 
Q 1541 388 1775 388 
Q 2263 388 2563 936 
Q 2863 1484 2863 2056 
Q 2863 2478 2661 2708 
Q 2459 2938 2159 2938 
Q 1944 2938 1759 2823 
Q 1575 2709 1417 2482 
Q 1259 2256 1156 1928 
Q 1053 1600 1053 1356 
z
" transform="scale(0.015625)"/>
     <path id="Arial-ItalicMT-74" d="M 1534 459 
L 1441 -3 
Q 1238 -56 1047 -56 
Q 709 -56 509 109 
Q 359 234 359 450 
Q 359 559 441 953 
L 844 2881 
L 397 2881 
L 488 3319 
L 934 3319 
L 1106 4134 
L 1753 4525 
L 1500 3319 
L 2056 3319 
L 1963 2881 
L 1409 2881 
L 1025 1047 
Q 953 697 953 628 
Q 953 528 1011 475 
Q 1069 422 1200 422 
Q 1388 422 1534 459 
z
" transform="scale(0.015625)"/>
     <path id="Arial-ItalicMT-79" d="M 0 -1281 
L 34 -750 
Q 209 -800 375 -800 
Q 547 -800 653 -722 
Q 791 -619 953 -334 
L 1134 -9 
L 581 3319 
L 1138 3319 
L 1388 1641 
Q 1463 1144 1516 647 
L 3000 3319 
L 3591 3319 
L 1475 -441 
Q 1169 -991 931 -1169 
Q 694 -1347 384 -1347 
Q 188 -1347 0 -1281 
z
" transform="scale(0.015625)"/>
     <path id="Arial-ItalicMT-2d" d="M 297 1375 
L 416 1941 
L 2141 1941 
L 2025 1375 
L 297 1375 
z
" transform="scale(0.015625)"/>
     <path id="Arial-ItalicMT-61" d="M 2450 413 
Q 2156 159 1884 42 
Q 1613 -75 1303 -75 
Q 844 -75 562 195 
Q 281 466 281 888 
Q 281 1166 407 1380 
Q 534 1594 743 1723 
Q 953 1853 1256 1909 
Q 1447 1947 1980 1969 
Q 2513 1991 2744 2081 
Q 2809 2313 2809 2466 
Q 2809 2663 2666 2775 
Q 2469 2931 2091 2931 
Q 1734 2931 1507 2773 
Q 1281 2616 1178 2325 
L 606 2375 
Q 781 2869 1161 3131 
Q 1541 3394 2119 3394 
Q 2734 3394 3094 3100 
Q 3369 2881 3369 2531 
Q 3369 2266 3291 1916 
L 3106 1091 
Q 3019 697 3019 450 
Q 3019 294 3088 0 
L 2516 0 
Q 2469 163 2450 413 
z
M 2659 1681 
Q 2541 1634 2405 1609 
Q 2269 1584 1950 1556 
Q 1456 1513 1253 1445 
Q 1050 1378 947 1231 
Q 844 1084 844 906 
Q 844 669 1008 516 
Q 1172 363 1475 363 
Q 1756 363 2015 511 
Q 2275 659 2425 925 
Q 2575 1191 2659 1681 
z
" transform="scale(0.015625)"/>
     <path id="Arial-ItalicMT-78" d="M -9 0 
L 1434 1684 
L 606 3319 
L 1231 3319 
L 1513 2728 
Q 1669 2397 1794 2094 
L 2750 3319 
L 3441 3319 
L 2047 1641 
L 2884 0 
L 2259 0 
L 1928 675 
Q 1822 891 1688 1209 
L 700 0 
L -9 0 
z
" transform="scale(0.015625)"/>
     <path id="Arial-ItalicMT-7a" d="M 125 0 
L 216 438 
L 2000 2447 
Q 2191 2659 2425 2888 
Q 2022 2847 1847 2847 
L 613 2847 
L 713 3319 
L 3278 3319 
L 3203 2963 
L 1403 941 
Q 1250 769 947 469 
Q 1419 497 1594 497 
L 2900 497 
L 2797 0 
L 125 0 
z
" transform="scale(0.015625)"/>
     <path id="Arial-ItalicMT-3b" d="M 906 2678 
L 1041 3319 
L 1678 3319 
L 1544 2678 
L 906 2678 
z
M 347 0 
L 481 641 
L 1125 641 
L 1009 81 
Q 903 -422 679 -656 
Q 456 -891 153 -925 
L 206 -678 
Q 578 -575 697 0 
L 347 0 
z
" transform="scale(0.015625)"/>
     <path id="Arial-ItalicMT-66" d="M 291 0 
L 894 2881 
L 388 2881 
L 478 3319 
L 984 3319 
L 1081 3791 
Q 1156 4144 1236 4300 
Q 1316 4456 1495 4557 
Q 1675 4659 1984 4659 
Q 2200 4659 2609 4569 
L 2506 4075 
Q 2219 4150 2025 4150 
Q 1859 4150 1773 4067 
Q 1688 3984 1625 3675 
L 1550 3319 
L 2181 3319 
L 2091 2881 
L 1459 2881 
L 856 0 
L 291 0 
z
" transform="scale(0.015625)"/>
     <path id="Arial-ItalicMT-6d" d="M 209 0 
L 903 3319 
L 1469 3319 
L 1353 2772 
Q 1669 3125 1917 3259 
Q 2166 3394 2456 3394 
Q 2766 3394 2973 3230 
Q 3181 3066 3247 2772 
Q 3500 3084 3779 3239 
Q 4059 3394 4369 3394 
Q 4784 3394 4992 3197 
Q 5200 3000 5200 2644 
Q 5200 2491 5128 2138 
L 4681 0 
L 4116 0 
L 4572 2194 
Q 4631 2463 4631 2578 
Q 4631 2741 4528 2834 
Q 4425 2928 4238 2928 
Q 3984 2928 3721 2775 
Q 3459 2622 3314 2373 
Q 3169 2125 3059 1609 
L 2722 0 
L 2156 0 
L 2625 2241 
Q 2675 2469 2675 2566 
Q 2675 2728 2573 2828 
Q 2472 2928 2309 2928 
Q 2069 2928 1805 2775 
Q 1541 2622 1375 2348 
Q 1209 2075 1103 1569 
L 775 0 
L 209 0 
z
" transform="scale(0.015625)"/>
     <path id="Arial-ItalicMT-6c" d="M 169 0 
L 1125 4581 
L 1691 4581 
L 734 0 
L 169 0 
z
" transform="scale(0.015625)"/>
    </defs>
    <use xlink:href="#Arial-ItalicMT-46"/>
    <use xlink:href="#Arial-ItalicMT-69" transform="translate(61.083984 0)"/>
    <use xlink:href="#Arial-ItalicMT-67" transform="translate(83.300781 0)"/>
    <use xlink:href="#Arial-ItalicMT-75" transform="translate(138.916016 0)"/>
    <use xlink:href="#Arial-ItalicMT-72" transform="translate(194.53125 0)"/>
    <use xlink:href="#Arial-ItalicMT-65" transform="translate(227.832031 0)"/>
    <use xlink:href="#Arial-ItalicMT-20" transform="translate(283.447266 0)"/>
    <use xlink:href="#Arial-ItalicMT-31" transform="translate(311.230469 0)"/>
    <use xlink:href="#Arial-ItalicMT-2e" transform="translate(366.845703 0)"/>
    <use xlink:href="#Arial-ItalicMT-34" transform="translate(394.628906 0)"/>
    <use xlink:href="#Arial-ItalicMT-20" transform="translate(450.244141 0)"/>
    <use xlink:href="#Arial-ItalicMT-73" transform="translate(478.027344 0)"/>
    <use xlink:href="#Arial-ItalicMT-68" transform="translate(528.027344 0)"/>
    <use xlink:href="#Arial-ItalicMT-6f" transform="translate(583.642578 0)"/>
    <use xlink:href="#Arial-ItalicMT-77" transform="translate(639.257812 0)"/>
    <use xlink:href="#Arial-ItalicMT-69" transform="translate(711.474609 0)"/>
    <use xlink:href="#Arial-ItalicMT-6e" transform="translate(733.691406 0)"/>
    <use xlink:href="#Arial-ItalicMT-67" transform="translate(789.306641 0)"/>
    <use xlink:href="#Arial-ItalicMT-20" transform="translate(844.921875 0)"/>
    <use xlink:href="#Arial-ItalicMT-41" transform="translate(868.955078 0)"/>
    <use xlink:href="#Arial-ItalicMT-63" transform="translate(935.654297 0)"/>
    <use xlink:href="#Arial-ItalicMT-68" transform="translate(985.654297 0)"/>
    <use xlink:href="#Arial-ItalicMT-69" transform="translate(1041.269531 0)"/>
    <use xlink:href="#Arial-ItalicMT-65" transform="translate(1063.486328 0)"/>
    <use xlink:href="#Arial-ItalicMT-76" transform="translate(1119.101562 0)"/>
    <use xlink:href="#Arial-ItalicMT-65" transform="translate(1169.101562 0)"/>
    <use xlink:href="#Arial-ItalicMT-64" transform="translate(1224.716797 0)"/>
    <use xlink:href="#Arial-ItalicMT-20" transform="translate(1280.332031 0)"/>
    <use xlink:href="#Arial-ItalicMT-51" transform="translate(1308.115234 0)"/>
    <use xlink:href="#Arial-ItalicMT-4f" transform="translate(1385.898438 0)"/>
    <use xlink:href="#Arial-ItalicMT-46" transform="translate(1463.681641 0)"/>
    <use xlink:href="#Arial-ItalicMT-20" transform="translate(1523.015625 0)"/>
    <use xlink:href="#Arial-ItalicMT-70" transform="translate(1550.798828 0)"/>
    <use xlink:href="#Arial-ItalicMT-6f" transform="translate(1606.414062 0)"/>
    <use xlink:href="#Arial-ItalicMT-69" transform="translate(1662.029297 0)"/>
    <use xlink:href="#Arial-ItalicMT-6e" transform="translate(1684.246094 0)"/>
    <use xlink:href="#Arial-ItalicMT-74" transform="translate(1739.861328 0)"/>
    <use xlink:href="#Arial-ItalicMT-73" transform="translate(1767.644531 0)"/>
    <use xlink:href="#Arial-ItalicMT-20" transform="translate(1817.644531 0)"/>
    <use xlink:href="#Arial-ItalicMT-77" transform="translate(1845.427734 0)"/>
    <use xlink:href="#Arial-ItalicMT-69" transform="translate(1917.644531 0)"/>
    <use xlink:href="#Arial-ItalicMT-74" transform="translate(1939.861328 0)"/>
    <use xlink:href="#Arial-ItalicMT-68" transform="translate(1967.644531 0)"/>
    <use xlink:href="#Arial-ItalicMT-20" transform="translate(2023.259766 0)"/>
    <use xlink:href="#Arial-ItalicMT-79" transform="translate(2051.042969 0)"/>
    <use xlink:href="#Arial-ItalicMT-2d" transform="translate(2101.042969 0)"/>
    <use xlink:href="#Arial-ItalicMT-61" transform="translate(2134.34375 0)"/>
    <use xlink:href="#Arial-ItalicMT-78" transform="translate(2189.958984 0)"/>
    <use xlink:href="#Arial-ItalicMT-69" transform="translate(2239.958984 0)"/>
    <use xlink:href="#Arial-ItalicMT-73" transform="translate(2262.175781 0)"/>
    <use xlink:href="#Arial-ItalicMT-20" transform="translate(2312.175781 0)"/>
    <use xlink:href="#Arial-ItalicMT-73" transform="translate(2339.958984 0)"/>
    <use xlink:href="#Arial-ItalicMT-74" transform="translate(2389.958984 0)"/>
    <use xlink:href="#Arial-ItalicMT-61" transform="translate(2417.742188 0)"/>
    <use xlink:href="#Arial-ItalicMT-72" transform="translate(2473.357422 0)"/>
    <use xlink:href="#Arial-ItalicMT-74" transform="translate(2506.658203 0)"/>
    <use xlink:href="#Arial-ItalicMT-69" transform="translate(2534.441406 0)"/>
    <use xlink:href="#Arial-ItalicMT-6e" transform="translate(2556.658203 0)"/>
    <use xlink:href="#Arial-ItalicMT-67" transform="translate(2612.273438 0)"/>
    <use xlink:href="#Arial-ItalicMT-20" transform="translate(2667.888672 0)"/>
    <use xlink:href="#Arial-ItalicMT-61" transform="translate(2695.671875 0)"/>
    <use xlink:href="#Arial-ItalicMT-74" transform="translate(2751.287109 0)"/>
    <use xlink:href="#Arial-ItalicMT-20" transform="translate(2779.070312 0)"/>
    <use xlink:href="#Arial-ItalicMT-7a" transform="translate(2806.853516 0)"/>
    <use xlink:href="#Arial-ItalicMT-65" transform="translate(2856.853516 0)"/>
    <use xlink:href="#Arial-ItalicMT-72" transform="translate(2912.46875 0)"/>
    <use xlink:href="#Arial-ItalicMT-6f" transform="translate(2945.769531 0)"/>
    <use xlink:href="#Arial-ItalicMT-3b" transform="translate(3001.384766 0)"/>
    <use xlink:href="#Arial-ItalicMT-20" transform="translate(3029.167969 0)"/>
    <use xlink:href="#Arial-ItalicMT-63" transform="translate(3056.951172 0)"/>
    <use xlink:href="#Arial-ItalicMT-6f" transform="translate(3106.951172 0)"/>
    <use xlink:href="#Arial-ItalicMT-6e" transform="translate(3162.566406 0)"/>
    <use xlink:href="#Arial-ItalicMT-76" transform="translate(3218.181641 0)"/>
    <use xlink:href="#Arial-ItalicMT-65" transform="translate(3268.181641 0)"/>
    <use xlink:href="#Arial-ItalicMT-72" transform="translate(3323.796875 0)"/>
    <use xlink:href="#Arial-ItalicMT-73" transform="translate(3357.097656 0)"/>
    <use xlink:href="#Arial-ItalicMT-69" transform="translate(3407.097656 0)"/>
    <use xlink:href="#Arial-ItalicMT-6f" transform="translate(3429.314453 0)"/>
    <use xlink:href="#Arial-ItalicMT-6e" transform="translate(3484.929688 0)"/>
    <use xlink:href="#Arial-ItalicMT-20" transform="translate(3540.544922 0)"/>
    <use xlink:href="#Arial-ItalicMT-6f" transform="translate(3568.328125 0)"/>
    <use xlink:href="#Arial-ItalicMT-66" transform="translate(3623.943359 0)"/>
    <use xlink:href="#Arial-ItalicMT-20" transform="translate(3651.726562 0)"/>
    <use xlink:href="#Arial-ItalicMT-70" transform="translate(3679.509766 0)"/>
    <use xlink:href="#Arial-ItalicMT-6f" transform="translate(3735.125 0)"/>
    <use xlink:href="#Arial-ItalicMT-69" transform="translate(3790.740234 0)"/>
    <use xlink:href="#Arial-ItalicMT-6e" transform="translate(3812.957031 0)"/>
    <use xlink:href="#Arial-ItalicMT-74" transform="translate(3868.572266 0)"/>
    <use xlink:href="#Arial-ItalicMT-73" transform="translate(3896.355469 0)"/>
    <use xlink:href="#Arial-ItalicMT-20" transform="translate(3946.355469 0)"/>
    <use xlink:href="#Arial-ItalicMT-74" transform="translate(3974.138672 0)"/>
    <use xlink:href="#Arial-ItalicMT-6f" transform="translate(4001.921875 0)"/>
    <use xlink:href="#Arial-ItalicMT-20" transform="translate(4057.537109 0)"/>
    <use xlink:href="#Arial-ItalicMT-70" transform="translate(4085.320312 0)"/>
    <use xlink:href="#Arial-ItalicMT-61" transform="translate(4140.935547 0)"/>
    <use xlink:href="#Arial-ItalicMT-79" transform="translate(4196.550781 0)"/>
    <use xlink:href="#Arial-ItalicMT-6d" transform="translate(4246.550781 0)"/>
    <use xlink:href="#Arial-ItalicMT-65" transform="translate(4329.851562 0)"/>
    <use xlink:href="#Arial-ItalicMT-6e" transform="translate(4385.466797 0)"/>
    <use xlink:href="#Arial-ItalicMT-74" transform="translate(4441.082031 0)"/>
    <use xlink:href="#Arial-ItalicMT-73" transform="translate(4468.865234 0)"/>
    <use xlink:href="#Arial-ItalicMT-20" transform="translate(4518.865234 0)"/>
    <use xlink:href="#Arial-ItalicMT-70" transform="translate(4546.648438 0)"/>
    <use xlink:href="#Arial-ItalicMT-65" transform="translate(4602.263672 0)"/>
    <use xlink:href="#Arial-ItalicMT-72" transform="translate(4657.878906 0)"/>
    <use xlink:href="#Arial-ItalicMT-20" transform="translate(4691.179688 0)"/>
    <use xlink:href="#Arial-ItalicMT-72" transform="translate(4718.962891 0)"/>
    <use xlink:href="#Arial-ItalicMT-65" transform="translate(4752.263672 0)"/>
    <use xlink:href="#Arial-ItalicMT-67" transform="translate(4807.878906 0)"/>
    <use xlink:href="#Arial-ItalicMT-69" transform="translate(4863.494141 0)"/>
    <use xlink:href="#Arial-ItalicMT-73" transform="translate(4885.710938 0)"/>
    <use xlink:href="#Arial-ItalicMT-74" transform="translate(4935.710938 0)"/>
    <use xlink:href="#Arial-ItalicMT-65" transform="translate(4963.494141 0)"/>
    <use xlink:href="#Arial-ItalicMT-72" transform="translate(5019.109375 0)"/>
    <use xlink:href="#Arial-ItalicMT-65" transform="translate(5052.410156 0)"/>
    <use xlink:href="#Arial-ItalicMT-64" transform="translate(5108.025391 0)"/>
    <use xlink:href="#Arial-ItalicMT-20" transform="translate(5163.640625 0)"/>
    <use xlink:href="#Arial-ItalicMT-61" transform="translate(5191.423828 0)"/>
    <use xlink:href="#Arial-ItalicMT-6e" transform="translate(5247.039062 0)"/>
    <use xlink:href="#Arial-ItalicMT-64" transform="translate(5302.654297 0)"/>
    <use xlink:href="#Arial-ItalicMT-20" transform="translate(5358.269531 0)"/>
    <use xlink:href="#Arial-ItalicMT-77" transform="translate(5386.052734 0)"/>
    <use xlink:href="#Arial-ItalicMT-65" transform="translate(5458.269531 0)"/>
    <use xlink:href="#Arial-ItalicMT-69" transform="translate(5513.884766 0)"/>
    <use xlink:href="#Arial-ItalicMT-67" transform="translate(5536.101562 0)"/>
    <use xlink:href="#Arial-ItalicMT-68" transform="translate(5591.716797 0)"/>
    <use xlink:href="#Arial-ItalicMT-74" transform="translate(5647.332031 0)"/>
    <use xlink:href="#Arial-ItalicMT-65" transform="translate(5675.115234 0)"/>
    <use xlink:href="#Arial-ItalicMT-64" transform="translate(5730.730469 0)"/>
    <use xlink:href="#Arial-ItalicMT-20" transform="translate(5786.345703 0)"/>
    <use xlink:href="#Arial-ItalicMT-70" transform="translate(5814.128906 0)"/>
    <use xlink:href="#Arial-ItalicMT-6f" transform="translate(5869.744141 0)"/>
    <use xlink:href="#Arial-ItalicMT-70" transform="translate(5925.359375 0)"/>
    <use xlink:href="#Arial-ItalicMT-75" transform="translate(5980.974609 0)"/>
    <use xlink:href="#Arial-ItalicMT-6c" transform="translate(6036.589844 0)"/>
    <use xlink:href="#Arial-ItalicMT-61" transform="translate(6058.806641 0)"/>
    <use xlink:href="#Arial-ItalicMT-74" transform="translate(6114.421875 0)"/>
    <use xlink:href="#Arial-ItalicMT-69" transform="translate(6142.205078 0)"/>
    <use xlink:href="#Arial-ItalicMT-6f" transform="translate(6164.421875 0)"/>
    <use xlink:href="#Arial-ItalicMT-6e" transform="translate(6220.037109 0)"/>
    <use xlink:href="#Arial-ItalicMT-2e" transform="translate(6275.652344 0)"/>
   </g>
  </g>
 </g>
 <defs>
  <clipPath id="p63a1847fff">
   <rect x="55.490938" y="21.935625" width="446.81" height="371.78125"/>
  </clipPath>
 </defs>
</svg>
